<svg id="Layer_1" data-name="Layer 1" xmlns="http://www.w3.org/2000/svg" xmlns:xlink="http://www.w3.org/1999/xlink" viewBox="0 0 1200.2 548.4">
  <defs>
    <style>
      .cls-1 {
        fill: url(#Orange_Yellow);
      }

      .cls-2, .cls-3, .cls-4, .cls-5 {
        fill-opacity: 0;
      }

      .cls-2 {
        fill: url(#Orange_Yellow-2);
      }

      .cls-3 {
        fill: url(#Orange_Yellow-3);
      }

      .cls-4 {
        fill: url(#Orange_Yellow-4);
      }

      .cls-5 {
        fill: url(#Orange_Yellow-5);
      }

      .cls-6 {
        fill: url(#Orange_Yellow-6);
      }

      .cls-7 {
        fill: url(#Orange_Yellow-7);
      }

      .cls-8 {
        fill: url(#Orange_Yellow-8);
      }

      .cls-9 {
        fill: url(#Orange_Yellow-9);
      }

      .cls-10 {
        fill: url(#Orange_Yellow-10);
      }

      .cls-11 {
        fill: url(#Orange_Yellow-11);
      }

      .cls-12 {
        fill: url(#Orange_Yellow-12);
      }

      .cls-13 {
        fill: url(#Orange_Yellow-13);
      }

      .cls-14 {
        fill: url(#Orange_Yellow-14);
      }

      .cls-15 {
        fill: url(#Orange_Yellow-15);
      }

      .cls-16 {
        fill: url(#Orange_Yellow-16);
      }
    </style>
    <linearGradient id="Orange_Yellow" data-name="Orange, Yellow" x1="-0.2" y1="287.81" x2="1199.8" y2="287.81" gradientUnits="userSpaceOnUse">
      <stop offset="0" stop-color="#fff33b"/>
      <stop offset="0.04" stop-color="#fee72e"/>
      <stop offset="0.12" stop-color="#fed51b"/>
      <stop offset="0.2" stop-color="#fdca10"/>
      <stop offset="0.28" stop-color="#fdc70c"/>
      <stop offset="0.67" stop-color="#f3903f"/>
      <stop offset="0.89" stop-color="#ed683c"/>
      <stop offset="1" stop-color="#e93e3a"/>
    </linearGradient>
    <linearGradient id="Orange_Yellow-2" x1="0" y1="154.58" x2="1200" y2="154.58" xlink:href="#Orange_Yellow"/>
    <linearGradient id="Orange_Yellow-3" x1="706.3" y1="201.92" x2="775.9" y2="201.92" xlink:href="#Orange_Yellow"/>
    <linearGradient id="Orange_Yellow-4" x1="703.3" y1="207.99" x2="706.24" y2="207.99" xlink:href="#Orange_Yellow"/>
    <linearGradient id="Orange_Yellow-5" x1="701.1" y1="208.64" x2="703.34" y2="208.64" xlink:href="#Orange_Yellow"/>
    <linearGradient id="Orange_Yellow-6" x1="858.33" y1="138.41" x2="863.7" y2="138.41" xlink:href="#Orange_Yellow"/>
    <linearGradient id="Orange_Yellow-7" x1="1035.2" y1="243.81" x2="1036.5" y2="243.81" xlink:href="#Orange_Yellow"/>
    <linearGradient id="Orange_Yellow-8" x1="531.79" y1="186.39" x2="534.9" y2="186.39" xlink:href="#Orange_Yellow"/>
    <linearGradient id="Orange_Yellow-9" x1="648.46" y1="170.29" x2="649.62" y2="170.29" xlink:href="#Orange_Yellow"/>
    <linearGradient id="Orange_Yellow-10" x1="913.3" y1="242.97" x2="915.14" y2="242.97" xlink:href="#Orange_Yellow"/>
    <linearGradient id="Orange_Yellow-11" x1="572.67" y1="72.89" x2="573.5" y2="72.89" xlink:href="#Orange_Yellow"/>
    <linearGradient id="Orange_Yellow-12" x1="657.5" y1="185.16" x2="658.7" y2="185.16" xlink:href="#Orange_Yellow"/>
    <linearGradient id="Orange_Yellow-13" x1="616.1" y1="77.51" x2="616.5" y2="77.51" xlink:href="#Orange_Yellow"/>
    <linearGradient id="Orange_Yellow-14" x1="866.5" y1="159.59" x2="866.6" y2="159.59" xlink:href="#Orange_Yellow"/>
    <linearGradient id="Orange_Yellow-15" x1="1036.36" y1="243.21" x2="1037" y2="243.21" xlink:href="#Orange_Yellow"/>
    <linearGradient id="Orange_Yellow-16" x1="402.36" y1="256.7" x2="402.7" y2="256.7" xlink:href="#Orange_Yellow"/>
  </defs>
  <title>castle2</title>
  <g>
    <path class="cls-1" d="M1199.8,242.32V548.4H-0.2V296.5a21.09,21.09,0,0,1,4.2.77,5.92,5.92,0,0,0,3,.34c1.7-.09,3.6-0.43,5.1-0.09,3.1,0.68,6.3.86,9.4,1.28a13.14,13.14,0,0,1,2,.6,15.63,15.63,0,0,0-.3,1.8,13.22,13.22,0,0,0,.2,1.88c0.9,0.17,1.7.43,2.5,0.51,6.2,0.77,12.3,1.46,18.5,2.14a6,6,0,0,0,1.7-.09v-3.42c2.6-.86,4.9-0.51,7.3-0.26a60.36,60.36,0,0,1,6.9.86c-0.2,1.54-.6,3,0.2,4.54,0.5,0.09,1,.26,1.5.34,3.8,0.43,7.6.77,11.5,1.11a7.06,7.06,0,0,0,2.7-.26c2.8-1,5.6-.77,8.4-0.34a11.2,11.2,0,0,0,.4,1.54,13.57,13.57,0,0,0,4.9-.17,12.72,12.72,0,0,0,.2-5.14,9.61,9.61,0,0,1,0-2.4c0.2-2.74.8-5.48,0-8.13,1.6-2.4,3-4.88,7.9-5,0.9,1.28,1.8,2.48,2.5,3.34-0.4,1.11-.7,1.88-0.9,2.65-0.7,2.91.1,5.73,0.6,8.64a10.92,10.92,0,0,0,4.1.94c6.7,0.34,13.4.86,20.1,1.2a9.5,9.5,0,0,0,3.8-.17c-0.2-.51-0.4-0.86-0.6-1.37a17.74,17.74,0,0,1,3.6-.34c3.5,0.09,6.9.34,10.3,0.6a1.22,1.22,0,0,1,.6.26v2c2.9,0.09,5.7.17,8.4,0.34a13.5,13.5,0,0,0,4.6-.6c6.6-2,13.2-3.85,19.8-5.73,8-2.31,16-4.45,24-6.76,11.9-3.42,23.8-6.93,35.6-10.53,4.6-1.37,9.2-2.91,13.8-4.28,1.8-.51,2.6-1.37,2.4-2.91-2.3-.43-4.7-0.94-7-1.37a1.42,1.42,0,0,1,.8-2c2.2-1.28,4.2-2.82,7.6-2.65a8,8,0,0,0-.3-5.05c1.8-.68,3.1-1.8,5.2-2a39.35,39.35,0,0,1,7.7.34,6,6,0,0,0-.4,5.05,14.25,14.25,0,0,0,1.9.17c3.8,0.17,7.7.43,11.5,0.6,2.5,0.17,5,.34,7.6.43,4.8,0.26,9.6.34,14.3,0.6,6.5,0.34,13,.77,19.4,1.2l14.3,0.77c5.3,0.26,10.6.43,15.8,0.6,1.2-1.2.1-2.23,0.1-3.25,2.2-1,2.2-1,4.3-.94,4.4,0.17,8.8.43,13.2,0.68a21.3,21.3,0,0,1,2.3.34c-0.4,1.46-.7,2.82.1,4.19l23,1.28a14.74,14.74,0,0,0,.4-1.46,4.63,4.63,0,0,0,3.3-1.28c1.8-1.88,3.8-3.77,5.8-5.56a2.52,2.52,0,0,0,1-2.31c-0.1-1-.1-2-0.1-3a5.4,5.4,0,0,1,.4-1.63c6.8,0.17,13.3.51,20,1.2,0.1,1.63.1,3.08,0.2,4.54a2.93,2.93,0,0,0,.7,1.8,14.7,14.7,0,0,0,4.1,2.82,5.21,5.21,0,0,0,.9-0.26c5.1-1.54,9.4-.86,12.8,2.05,0.6,0.51,1,1.11,1.6,1.54a7.2,7.2,0,0,0,.9.51c0.9-.09,1.9-0.17,2.7-0.17,0.4-.51.7-0.86,1.1-1.46,0.4,0.68.6,1.11,0.9,1.54,0.5,0.09,1,.09,1.5.17a9.55,9.55,0,0,1,1.7.43c-0.2,2.05-.7,3.94.2,5.82,1.5,0.26,3.2-.6,4.1.68,0.2,0.86-1.9,1.2-1,2.23l11,0.77a67.41,67.41,0,0,1,11,1.2c8.2,1.88,16.4,3.77,24.7,5.56l35.4,7.7a19.32,19.32,0,0,0,2.4.17c0.1-.86.3-1.63,0.3-2.31,0-1.46-.2-2.91-0.3-4.37-0.2-6.93-.3-13.87-0.5-20.8-0.2-6.59-.4-13.1-0.6-19.69-0.1-3.42-.3-6.85-2-10.27a12.69,12.69,0,0,0,.9-1.11,1.73,1.73,0,0,0-.7-2.74,5,5,0,0,1-2.6-3.25c-1.8-.26-3.5-0.51-5-0.68-1.2-1.54-1.2-1.54-3.9-2.82,3.4-2.23,7.7-3.51,11.1-5.56V218c1.2-.26,2.4-0.6,3.6-0.86l-0.4-.68c-3.3-2.65-3.5-4.37-.5-7,2.2-1.88,2.5-3.94,1.5-6.16-0.7-1.63-1.5-3.34-2.2-5a5.54,5.54,0,0,0-2.4-3.17c0.3-.43.5-0.77,0.8-1.2,4.2,0.6,6.1-1.46,8.2-3.42-0.2-.94-0.6-2-0.7-2.91a3.23,3.23,0,0,1,.4-1.88,1.8,1.8,0,0,1,2.6-.17c0.6,0.6,1.2,1.11,1.8,1.71a11.63,11.63,0,0,0,4.7-1.11c0.3-4.79-.1-9.5-0.2-14.21a2.59,2.59,0,0,0-1.4-2.14c-2.6-1.71-2.6-2.4-.8-4.54,0.2-.26.4-0.43,0.6-0.68-0.8-.86-1.5-1.71-2.2-2.4,1.9-1.88,1.7-1.8-.1-3.25-0.8-.6-2.3-0.68-2.5-1.2-0.6-1.37-2.1-1.37-3.6-1.71a3.51,3.51,0,0,1-1.4-.43c-0.4-1.2-2.1-1.46-3.6-2.05,1.7-.26,3-0.51,4.3-0.6,3.8-.34,5.8-2,6.5-4.45,0.4-1.37.7-2.65,1.2-4,0.4-.94.9-1.88,1.4-2.82,0.7-1-.1-2.14.8-3.17,0.6-.6.2-1.37-0.7-2-2-1.46-2-1.54.1-2.65,0.7-.34,1.5-0.68,2.5-1.2-0.2-.94-0.9-2-0.5-2.82,0.5-1.11.1-2.14,0-3.25a5.82,5.82,0,0,1,.4-1.8c1.2,0.26,2.1.43,3.1,0.6-0.2,1.37-.8,2.65-0.6,3.85s-1.2,2.48.1,3.68c1.2,0.43,2.4.94,3.6,1.46a32.92,32.92,0,0,0,6.2-3.68,1.46,1.46,0,0,0,.8-0.94c-0.1-1.37,1.2-2.31,1.8-3.51-1-1-3-1.46-2.5-3.25,3.5-1.28,3.4-3.77,3.3-6.33s-0.3-5.31-.4-8-0.2-5.31-.1-8-0.6-5.22-.2-7.87a3.59,3.59,0,0,0-.1-1c-2.3-1.37-2.3-1.37-3.3-3.25,0.4-.43,1.3-0.94,1.3-1.37-0.2-1.37,1.1-2,2.3-2.65a7.27,7.27,0,0,0,2.8-2.82c0.7-1.37.7-2.4-.7-3.51a3.21,3.21,0,0,1-.6-0.94c1.4-1.37,1.4-1.37,3.6-1.37,1.5-2.14,4.8-3.25,6.3-5.39-0.3-.6-0.6-1.11-0.9-1.63a20.51,20.51,0,0,1,1.8-1.11,12.33,12.33,0,0,0,4.6-4.45,10.17,10.17,0,0,1,4.3-4.19c1.7-.94,2.3-2,1.1-3.34a1.45,1.45,0,0,1-.4-1.8c1.5-1.8,1.2-3.85,1.9-6.16-3-.26-3.3-2-3.9-3.59a7.47,7.47,0,0,1,1.4-2A12.34,12.34,0,0,1,593.8,41V34.67c-0.5-.17-1.5-0.51-2.6-0.86,2.7-2.05,2.6-4.37,2.9-6.59,1.2,0.26,1.1.86,1.4,1.37A8.51,8.51,0,0,0,596.8,30c-1.5,1.8-1.7,1.88-1.8,3.51a25.3,25.3,0,0,0,.1,7.28c4.8,2.23,4.8,5.39.1,7.28,0.2,0.86.4,1.71,0.6,2.48,1.3,0.43,2.5-.34,3.7.17a37.53,37.53,0,0,1-.1,5.82C599,59,600,61,601.8,63a11.24,11.24,0,0,0,3,2.48c1.6,0.86,3.5,1.71,3.4,3.42a1.86,1.86,0,0,0,.9.86,31,31,0,0,0,2.9,1.8c1.4,0.77,2.3,1.71,2.1,3.34a20.84,20.84,0,0,0-2.7,1.71,7.87,7.87,0,0,0-1.4,1,1,1,0,0,0,.3,1.71c1.4,0.51,2.9,1.28,4.3,1.2,2.1-.09,2.7.51,3.3,1.71a4.75,4.75,0,0,0,1.6,1.8c1.2,0.94,2.6,1.71,4,2.65a19.28,19.28,0,0,1-1.3,2.4,18.14,18.14,0,0,1-1.6,2.14c-0.8.94,0.2,1.71,0.2,2.65-0.1,7.45,0,15,.1,22.43a8.89,8.89,0,0,0,.1,1.63,2.42,2.42,0,0,0,1.5,2.14c0.6,0.34,1.2.68,1.6,0.94,0.2,1.11-.6,1.71-1.4,2.31-1.2.86-1.4,1.37-.2,2.14s0.5,1.88,1.4,2.48a32.45,32.45,0,0,0,3.6,1.63,2.6,2.6,0,0,1,.6.43,21.34,21.34,0,0,0,4.9,2.74,8.7,8.7,0,0,1,1.8,1.37,7.91,7.91,0,0,0,1.4.68,4.51,4.51,0,0,0,.2-1.88,28,28,0,0,0-2.3-2.4c1-2.23,1-2.23-1.6-4.19,0.9-1.46.9-1.46,3.8-3.08,0-2.4-.7-4.88-0.6-7.28a4.25,4.25,0,0,1,3.8.26c-0.8,2.31-.6,4.71-0.7,7,3.1,1.54,3.1,1.54,3.9,3-2.6,1.8-2.6,1.8-1.5,4.37-2,1.2-3,2.65-2.1,4.45,0.6,0.43,1.1.86,1.6,1.28,1.5,1.11,2.3,2.4,2.1,3.94a8.38,8.38,0,0,0,.3,2.14l4.6-.26a1,1,0,0,1-.1.51c-0.2.43-.7,0.86-0.5,1.2a1.91,1.91,0,0,0,1.2,1c1,0.34,2.2.68,3.3,0.94s2.5,0.43,3.9.6c-2.6,1.11-2.6,1.11-3.8,2.4-1,.09-2,0.17-3.1.17-2.6.09-3.8,1.46-5.2,2.65a1.19,1.19,0,0,0-.1,1.28,5.68,5.68,0,0,0,1.3,1.46,9.07,9.07,0,0,1-.9,1.71,16.42,16.42,0,0,1-1.1,1.71,11.11,11.11,0,0,0,1,.94,2.7,2.7,0,0,1,.7,2.91c-0.3,1-1.5,1.46-2.7,1.88a2.07,2.07,0,0,0-.6.6v2.31c0.3,7.45.5,15,.9,22.43a56.45,56.45,0,0,0,.8,5.73,1.54,1.54,0,0,0,1.2,1.54,2.71,2.71,0,0,0,1.1-3.34,5.29,5.29,0,0,1-.3-2.14,25.77,25.77,0,0,0-.6-8.73c-0.2-1.2.2-2.14,1.8-2.82,0.4-.17.8-0.43,1.4-0.68-0.2-.94-0.5-1.8-0.7-2.74,0.7-.6,1.5-1.2,2.3-1.88,1.1,0.68,2.2,1.28,3.3,2-0.3.43-.5,0.77-0.7,1-1.2,1.8-.8,3.34,1.4,4.62,1.3,0.77,2.8,1.37,3,2.74,0,0.34.9,0.68,1.3,0.94l0.1-.09c-1.5.26-2.7,0.6-2.7,1.88a5.39,5.39,0,0,1-1.5,4.19,2.46,2.46,0,0,0-.7,2.91c1.5,0.77,2.7,1.46,4,2.23-0.3,2.05.7,3.59,3,4.88a3.43,3.43,0,0,1,1.8,4c-0.2.68-.6,1.37-1,2.4,2.5,0.6,2.1,2.23,2.3,3.59a16,16,0,0,1,.1,2.23c0.1,1.37.2,2.74,0.3,4.19,4,0.68,7.9.77,12.2,1.37-2.1,1.28-4.4,2.05-4.3,3.77a7.08,7.08,0,0,1-1.2.51c-2.5.86-4.4,2-5.1,3.85a2.5,2.5,0,0,1-1.1,1.11c-1.8.77-2.1,2.05-1.1,3.08,0.8,0.86.4,1.54,0.2,2.31s-0.5,1.37-.7,2a5.4,5.4,0,0,0,.9.34c6,0.43,11.9.86,17.9,1.2,0.6,0,1.2-.17,2.1-0.26-0.3-1.2-.5-2.23-0.8-3.34-1.7-.51-1.2-1.88-2.3-2.82-2.2-.26-4.4-0.43-7.3-0.77,2.4-1.2,4.4-1.8,6.3-2.57s3.9-1.63,5.8-2.4,4-1.54,5.8-2.4,4.1-1.28,5.7-2.23c-0.4-.86-1.1-1.46-1.1-2.14,0-1.54-1.7-2.57-2.4-3.85-0.2-.43-1.5-0.51-1-1.37,2-.68,4.1-1.46,6.2-2.23,1.1-.43,2.5-0.68,3.2-1.54l2.2-.26c1-.34,2.4-0.43,2.9-1.28,1.4-.17,2.8-0.43,4.3-0.51,10.2-.77,20.4-1.54,30.5-2.23a35.15,35.15,0,0,1,5.2,0c9.1,0.6,18.3,1.28,27.4,1.88a7.81,7.81,0,0,0,2,0,0.5,0.5,0,0,0,.4-0.34,0.48,0.48,0,0,0-.4-0.43c-1-.09-2.1,0-3.1-0.09-7.4-.51-14.8-1-22.2-1.63-1.6-.09-3.1-0.26-4.1-1.37A9.07,9.07,0,0,0,744,202a17.53,17.53,0,0,1-2.7.6c-0.9.09-1.8,0-2.7,0-1.3,1.63-1.3,1.63-4.8,1.37-1.1-2.31-.1-4.88-1-7.19-2.6,0-2.9.09-2.9,1.46,0,1.54.2,3.08,0.3,4.62a6.39,6.39,0,0,0,.4,1.46,8.11,8.11,0,0,1-4,.51c-1.4.09-2.8,0.51-4.2,0.17a6.11,6.11,0,0,1-1.2-4.37,1.32,1.32,0,0,0-1.2-1.54c-0.7-.17-1.4.51-1.4,1.63v4.37c-1.6.94-2.2-.34-3-0.6h-4.1c-1.1,0-1.9.17-2.2,0.86a3.77,3.77,0,0,1-2.2,1.46,7.84,7.84,0,0,0-1,.77c-2.2,0-2.5.17-2.9,1.28a20.79,20.79,0,0,1-2.3.17l-1.8.26c-1.1-1.2-.5-2.65-1.7-4.11v3.34a2.13,2.13,0,0,1-.1,1.11,2.27,2.27,0,0,1-1.1.68,1.77,1.77,0,0,1-1.1-.51c0.1-1.2-1.2-1.11-2.5-1.46a11.07,11.07,0,0,1-.2-3.17c0.3-1.37-.1-2.91,1.3-4.19,0.5-.51.6-1.28-0.5-1.63a1.31,1.31,0,0,1-1-1.11c-0.2-1.63-.3-3.25-0.5-4.88a2.28,2.28,0,0,1,1-2.48,1.22,1.22,0,0,0,0-2.23c-2.1-.94-1.4-1.71-0.3-2.65a1.07,1.07,0,0,0,0-1.8c-1.2-.77-1.1-1.54-1.2-2.48a19.54,19.54,0,0,0-.2-2.57c-1.6-1.46-3.8-2.14-5.1-3.42l13.8-12.58c4.9-4.54,9.4-9.24,12.7-14.55,3-5,6.3-9.84,9.5-14.72a76.86,76.86,0,0,0,8.5-16.43c0.3-.77.6-1.63,0.9-2.4,0.4-.94,1.2-1.88.1-2.82a0.58,0.58,0,0,1,.1-0.77c1.4-.86.9-2.05,0.9-3.08a18.08,18.08,0,0,1,1.1-6.42,21.85,21.85,0,0,1,6.3.43c-0.9,1.28-.9,1.28-0.4,2.65-1.7.43-3.6-.34-5.6,0.17a20.6,20.6,0,0,0-.1,2.48c0.1,1.28-.2,2.57,1.2,3.68a0.79,0.79,0,0,1,0,1,1.87,1.87,0,0,0,.1,2.14,115.62,115.62,0,0,0,11.2,18.75c2.3,3.08,4.5,6.25,6.8,9.33,4.8,6.51,9.2,13.18,16.3,18.75,4.8,3.77,9.1,7.87,13.7,11.81,1,0.86,2,1.63,3.2,2.57-1.7.6-3.2,1.2-5,1.8,0.8,2.4-.6,4.71.1,7.1a5.21,5.21,0,0,1,0,2.48,8,8,0,0,0,.2,3.77c0.2,1.37.3,2.74,0.4,4.11,0.1,1.11.1,2.14,0.1,3.25,0.1,3,.2,6,0.2,9,0,0.94-.8,2.05-0.4,2.91,0.4,1,1.6,1.8,2.4,2.74a1.84,1.84,0,0,1-.3.43,2.15,2.15,0,0,1-.6.34c-0.6.68-.5,1.28,0.5,1.63a21,21,0,0,0,2.2.6l18.4,4.62a12.6,12.6,0,0,1,1.8.86,56.38,56.38,0,0,1-6.3,1.71c-2.4.51-3.3,1.71-3.6,3.25a19.91,19.91,0,0,0-.1,2.48c0.1,3.51.2,7.1,0.2,10.61a10.29,10.29,0,0,1-.7,2.91,2.16,2.16,0,0,1-.9.6c-1.5-.51-1-2.14-3-2.14-0.5,1.28-.5,1.28.3,2.48a19.33,19.33,0,0,1,3.9.43,6.35,6.35,0,0,0,3.8-.09c1.2-.34,2.4-0.68,3.6-1.11,9.3-3.17,18.6-6.42,27.8-9.59,0.6-.17,1.1-0.51,1.8-0.77,0.1-3.25.2-6.42,0.3-9.76a1,1,0,0,1,.6.17c1.2,2.65.5,5.56,1.7,8.39a9.22,9.22,0,0,0,4.9-1.46l0.6-4.62a16.23,16.23,0,0,1,1.9-.6c0.9-2.23,0-4.62.8-6.93,2.2,1.2.7,3.08,2.2,4.45a2.87,2.87,0,0,0,.8-0.6,18.17,18.17,0,0,0,2.5-7.62c0.1-.77,0-1.54,1.3-2.05s1.1-1.28.2-2.05c-0.4-.34-1-0.6-1.4-0.94-0.6-.43-0.4-1,0.3-1.37,0.2-.09.5-0.09,0.7-0.17,1.4-.68,1.6-1.2.4-2.23-0.3-.26-0.9-0.43-0.7-0.86,0.4-1-.6-1.28-1.7-1.37-0.7-.09-1.4,0-2.2-0.09a1.31,1.31,0,0,0,.1-0.43,2.15,2.15,0,0,1,.6-0.34c2.7,0.09,3.9-.77,4.5-2.57,0.8-2.57,2-5.14,6-6.42a2.21,2.21,0,0,0,1.5-1.54c0.1-1.88.5-3.94-1.3-5.56-1.3-1.2-2.1-2.48-3.3-3.68a46.24,46.24,0,0,0,3.5-5.39,13.44,13.44,0,0,0,1.6-5.73c1.4-1.88.6-3.94,0.8-6-1-.51-2-1.11-3-1.71-0.7-.43-1-1-0.6-1.46,1.1-1.11,1.4-2.74,3.8-3.34v-2.48c0-1.37.3-2.74-1.4-3.77-0.6-.34-0.2-1,0.5-1.46a2.22,2.22,0,0,1,2.5,0,0.9,0.9,0,0,1,.4,1.46c-0.3.51-1,.94-0.9,1.46,0.2,2.05.5,4.19,0.8,6.25a0.91,0.91,0,0,0,.6.26,0.53,0.53,0,0,0,.5-0.34c0-.6-0.6-1.28,1-1.63a3.56,3.56,0,0,0,.4,1.46,10,10,0,0,0,1.6,1.11h0V163c-1,.43-1.8.86-2.7,1.28-0.4,6.16,2.4,11.56,7.4,16.52-1.1,1.37-1.1,3-2.8,4.19a2,2,0,0,0-.6,1.28,9,9,0,0,0,.1,4.88c1,0.51,2,1,3,1.46a6.29,6.29,0,0,1,3.9,3.68c0.3,0.68.7,1.37,0.9,1.8a5.93,5.93,0,0,1,1.9.6c0.2,0.43,0,.86.6,1.2a3.45,3.45,0,0,0,2.3.26c0.6,0,1.4-.09,1.2.86a6.67,6.67,0,0,0-5.2,1.2,43.63,43.63,0,0,0,.4,10.78,0.81,0.81,0,0,0,1.1.51c0.6-.43-0.1-1.54,1.6-1.63,0.3,1.11,0,2.23,1.1,3.17,0.8,0.6.5,1.46-.3,2.05-1.5,1-1.4,2.31-1.4,3.59v2.82c3,2.31,3,2.31,5,2.65a21.12,21.12,0,0,0,.8-2.31c2.3,1,.1,3.17,2.6,4.11a5.44,5.44,0,0,0,.4-0.86c0.1-2.74.1-5.39,0.1-8.13a2.69,2.69,0,0,1,1.2-2.65,28.3,28.3,0,0,1,.8,2.74,67.92,67.92,0,0,1,1.2,8.9c0,1.88,1.4,2.82,4.6,3.42a21.22,21.22,0,0,1-.1-6.16c0.3-2.05-.1-4.11.4-6.68a9.57,9.57,0,0,1,1,1.88c0.4,3.17.7,6.33,1.1,9.42,0.3,2.4-.1,4.88,1.9,7.1a2.59,2.59,0,0,1,.7,1.8,35.87,35.87,0,0,1,.3,4.62c0,1.54-.1,3.08.8,4.54q1.2,0.13,2.1.26c5.8,0.26,11.7.51,17.5,0.68,7.2,0.26,14.4.43,21.6,0.77,6,0.26,12,.6,17.9.77,8.1,0.26,16.2.43,24.4,0.77,14.9,0.6,29.8,1.28,44.7,1.88a5,5,0,0,0,2.5-.43,6.18,6.18,0,0,1,7,.51c0.8,0.51,1.6.94,2.4,1.46,10.9,6,21.9,12,32.8,18a5.74,5.74,0,0,0,1.7.68c4.4,1.2,8.9,2.4,13.4,3.59,1.4-.77,3.2-1.11,3.7-2.48-0.6-.43-1.1-0.86-1.6-1.28,0.8-.77,1.5-1.54.8-2.48a1.68,1.68,0,0,1-.2-1.54c0.5-2,.8-3.94-1.8-5.65a4.66,4.66,0,0,1,1.8-.77c1.2-.09,2.4-0.09,3.2.77-1.3,2.14-1.3,2.14-.5,4.45,0.2,0.68.6,1.37,0.8,2.05a8.89,8.89,0,0,0,.1,1.63,4.82,4.82,0,0,0,1,1.28c-1.5,1.63-1.5,1.88.3,2.74,0.6,0.26,1.2.43,1.7,0.68a27.19,27.19,0,0,0,10.9,1.28c4.8-.34,8.5,1.2,11.9,3.17a5.64,5.64,0,0,1,2.9,3.25,13.33,13.33,0,0,0,.7,1.8c2.3,0.43,4.1,1.2,6.2,1,3-2,5.9-3.77,8.8-5.65,0.8-.51,1.5-1.2,2.4-1.8,1.7-1.11,3.7-2.05,5.3-3.25,2.3-1.71,5.1-3.08,7.3-4.79,1.6-1.2,3.6-2.05,5.4-3.17,1.5-.94,2.7-1.88,4.1-2.82,2.3-1.54,4.7-3.08,7.1-4.62,1.8-1.2,3.6-2.31,5.4-3.51,2.6-1.71,5.3-3.42,8.1-5.05,1.6-.94,3.1-2,4.6-3,1.8-1.2,3.2-2.65,5.4-3.42a7.5,7.5,0,0,0,1.4-.94A8,8,0,0,1,1199.8,242.32Z" transform="translate(0.2)"/>
    <path class="cls-2" d="M866.6,160.06a10,10,0,0,1-1.6-1.11,3.56,3.56,0,0,1-.4-1.46c-1.6.34-1,1-1,1.63a0.69,0.69,0,0,1-.5.34,0.91,0.91,0,0,1-.6-0.26c-0.3-2.05-.6-4.19-0.8-6.25a4.64,4.64,0,0,1,.9-1.46,0.89,0.89,0,0,0-.4-1.46,2.22,2.22,0,0,0-2.5,0c-0.7.43-1.1,1-.5,1.46,1.8,1.11,1.4,2.48,1.4,3.77v2.48c-2.4.6-2.7,2.14-3.8,3.34-0.4.43-.1,1,0.6,1.46,1,0.6,2,1.11,3,1.71-0.3,2.05.6,4.11-.8,6A10.89,10.89,0,0,1,858,176a46.24,46.24,0,0,1-3.5,5.39c1.2,1.2,2,2.57,3.3,3.68,1.8,1.54,1.5,3.68,1.3,5.56a2.37,2.37,0,0,1-1.5,1.54c-3.9,1.37-5.1,3.85-6,6.42-0.6,1.88-1.8,2.65-4.5,2.57a1.09,1.09,0,0,0-.6.34,0.47,0.47,0,0,0-.1.43,18.07,18.07,0,0,1,2.2.09c1.1,0.17,2.1.34,1.7,1.37-0.2.43,0.4,0.6,0.7,0.86,1.1,0.94,1,1.54-.4,2.23-0.2.09-.5,0.09-0.7,0.17-0.8.34-.9,0.94-0.3,1.37,0.4,0.34,1,.6,1.4.94,0.9,0.77,1,1.63-.2,2.05a1.8,1.8,0,0,0-1.3,2.05,19.71,19.71,0,0,1-2.5,7.62,2.87,2.87,0,0,1-.8.6c-1.5-1.37.1-3.25-2.2-4.45-0.7,2.31.1,4.71-.8,6.93-0.6.17-1.2,0.34-1.9,0.6L840.7,229a9.49,9.49,0,0,1-4.9,1.46c-1.2-2.91-.5-5.73-1.7-8.39a1,1,0,0,0-.6-0.17l-0.3,9.76c-0.7.26-1.2,0.6-1.8,0.77-9.3,3.17-18.6,6.42-27.8,9.59-1.2.43-2.4,0.77-3.6,1.11a6.35,6.35,0,0,1-3.8.09,28.37,28.37,0,0,0-3.9-.43c-0.8-1.2-.9-1.2-0.3-2.48,1.9,0.09,1.5,1.63,3,2.14a2.16,2.16,0,0,0,.9-0.6,10.29,10.29,0,0,0,.7-2.91c0-3.51-.2-7.1-0.2-10.61a20.61,20.61,0,0,1,.1-2.48c0.3-1.54,1.1-2.74,3.6-3.25,2-.43,3.9-1.11,6.3-1.71a19.11,19.11,0,0,0-1.8-.86c-6.1-1.54-12.2-3.08-18.4-4.62a21,21,0,0,1-2.2-.6c-0.9-.26-1.1-0.86-0.5-1.63a1.3,1.3,0,0,1,.6-0.34,1.84,1.84,0,0,1,.3-0.43c-0.8-.94-2.1-1.71-2.4-2.74-0.3-.86.4-2,0.4-2.91,0-3-.1-6-0.2-9,0-1.11,0-2.23-.1-3.25-0.1-1.37-.2-2.74-0.4-4.11s-0.6-2.48-.2-3.77a5.21,5.21,0,0,0,0-2.48c-0.6-2.4.7-4.71-.1-7.1,1.8-.68,3.3-1.2,5-1.8-1.2-.94-2.2-1.71-3.2-2.57-4.6-3.94-8.9-8-13.7-11.81-7.1-5.65-11.5-12.24-16.3-18.75-2.3-3.08-4.5-6.25-6.8-9.33A112.08,112.08,0,0,1,735.2,114a2.05,2.05,0,0,1-.1-2.14,1,1,0,0,0,0-1c-1.4-1.11-1.1-2.4-1.2-3.68a21.33,21.33,0,0,1,.1-2.48c2-.6,3.9.26,5.6-0.17-0.5-1.37-.5-1.37.4-2.65a21.85,21.85,0,0,0-6.3-.43,18.08,18.08,0,0,0-1.1,6.42c0,1,.6,2.14-0.9,3.08a0.57,0.57,0,0,0-.1.77c1.1,0.94.3,1.88-.1,2.82-0.3.77-.6,1.54-0.9,2.4a81.71,81.71,0,0,1-8.5,16.43c-3.2,4.88-6.5,9.84-9.5,14.72-3.2,5.31-7.7,10-12.7,14.55-4.5,4.19-9.1,8.3-13.8,12.58,1.2,1.28,3.5,2,5.1,3.42a19.55,19.55,0,0,1,.2,2.57,2.34,2.34,0,0,0,1.2,2.48,1.07,1.07,0,0,1,0,1.8c-1.1.94-1.8,1.71,0.3,2.65a1.29,1.29,0,0,1,0,2.23,2.14,2.14,0,0,0-1,2.48c0.1,1.63.3,3.25,0.5,4.88a1.19,1.19,0,0,0,1,1.11c1.1,0.43,1,1.11.5,1.63-1.4,1.28-1,2.74-1.3,4.19a11.26,11.26,0,0,0,.2,3.17c1.3,0.34,2.6.26,2.5,1.46a1.77,1.77,0,0,0,1.1.51,1.49,1.49,0,0,0,1.1-.68,2,2,0,0,0,.1-1.11v-3.34c1.2,1.46.6,2.91,1.7,4.11l1.8-.26H701c-0.6.94-2,1.11-3.2,1.54-2.1.77-4.2,1.54-6.2,2.23-0.6.86,0.7,0.94,1,1.37,0.7,1.28,2.4,2.31,2.4,3.85,0,0.68.6,1.28,1.1,2.14-1.6.94-3.8,1.37-5.7,2.23s-3.9,1.54-5.8,2.4-3.9,1.63-5.8,2.4-3.9,1.46-6.3,2.57c3,0.34,5.2.51,7.3,0.77,1,0.86.6,2.23,2.3,2.82,0.3,1,.5,2.14.8,3.34a11.06,11.06,0,0,1-2.1.26c-6-.34-11.9-0.77-17.9-1.2a3.37,3.37,0,0,1-.9-0.34,11.86,11.86,0,0,0,.7-2c0.2-.77.6-1.46-0.2-2.31-1-1-.7-2.23,1.1-3.08a2.08,2.08,0,0,0,1.1-1.11c0.7-1.88,2.7-3.08,5.1-3.85A4.79,4.79,0,0,0,671,222c-0.1-1.8,2.3-2.57,4.3-3.77-4.3-.6-8.3-0.68-12.2-1.37-0.1-1.46-.2-2.82-0.3-4.19-0.1-.77,0-1.46-0.1-2.23-0.2-1.46.1-3-2.3-3.59,0.4-1,.8-1.71,1-2.4a3.43,3.43,0,0,0-1.8-4c-2.3-1.28-3.3-2.82-3-4.88-1.3-.68-2.5-1.37-4-2.23a2.62,2.62,0,0,1,.7-2.91,5.29,5.29,0,0,0,1.5-4.19c0-1.28,1.2-1.71,2.7-1.88a1.43,1.43,0,0,0,.2.68,2.88,2.88,0,0,0,.9.09c-0.2-.17-0.3-0.43-0.5-0.6s-0.5-.09-0.7-0.17c-0.5-.34-1.3-0.6-1.3-0.94-0.2-1.37-1.7-2-3-2.74-2.2-1.28-2.6-2.82-1.4-4.62a6.24,6.24,0,0,1,.7-1c-1.1-.68-2.2-1.28-3.3-2-0.8.68-1.6,1.28-2.3,1.88,0.2,0.94.5,1.8,0.7,2.74a10.54,10.54,0,0,1-1.4.68c-1.5.68-2,1.63-1.8,2.82a25.77,25.77,0,0,1,.6,8.73,5.29,5.29,0,0,0,.3,2.14,2.77,2.77,0,0,1-1.1,3.34,1.36,1.36,0,0,1-1.2-1.54,53.28,53.28,0,0,1-.8-5.73c-0.3-7.45-.6-15-0.9-22.43V163.4a1.33,1.33,0,0,1,.6-0.6c1.2-.43,2.4-0.77,2.7-1.88a2.73,2.73,0,0,0-.7-2.91c-0.3-.26-0.6-0.6-1-0.94a10.61,10.61,0,0,0,1.1-1.71c0.3-.6.6-1.2,0.9-1.71a5.68,5.68,0,0,1-1.3-1.46,1,1,0,0,1,.1-1.28c1.5-1.11,2.6-2.57,5.2-2.65,1.1,0,2.1-.17,3.1-0.17,1.3-1.28,1.3-1.28,3.8-2.4-1.4-.17-2.7-0.34-3.9-0.6a20.47,20.47,0,0,1-3.3-.94,1.91,1.91,0,0,1-1.2-1,3.07,3.07,0,0,1,.5-1.2c0.1-.17,0-0.34.1-0.51l-4.6.26a8.38,8.38,0,0,1-.3-2.14c0.2-1.63-.6-2.82-2.1-3.94-0.5-.43-1.1-0.86-1.6-1.28-0.9-1.8.1-3.25,2.1-4.45-1.1-2.57-1.1-2.57,1.5-4.37-0.8-1.46-.8-1.46-3.9-3a21,21,0,0,1,.7-7,4.25,4.25,0,0,0-3.8-.26c-0.1,2.4.6,4.88,0.6,7.28-2.9,1.63-2.9,1.63-3.8,3.08,2.6,2,2.6,2,1.6,4.19a18.1,18.1,0,0,1,2.3,2.4c0.3,0.43-.1,1-0.2,1.88a7.91,7.91,0,0,1-1.4-.68,8.7,8.7,0,0,0-1.8-1.37,25.11,25.11,0,0,1-4.9-2.74,3.11,3.11,0,0,0-.6-0.43,21.86,21.86,0,0,1-3.6-1.63c-0.9-.6-0.2-1.71-1.4-2.48s-0.9-1.2.2-2.14c0.8-.6,1.6-1.2,1.4-2.31-0.4-.26-1-0.6-1.6-0.94a2.42,2.42,0,0,1-1.5-2.14c0-.51-0.1-1.11-0.1-1.63,0-7.45-.1-15-0.1-22.43,0-.86-1-1.71-0.2-2.65a14.87,14.87,0,0,0,1.6-2.14c0.5-.77.8-1.54,1.3-2.4a42.24,42.24,0,0,1-4-2.65,4.75,4.75,0,0,1-1.6-1.8c-0.6-1.11-1.1-1.8-3.3-1.71-1.4.09-2.9-.77-4.3-1.2a0.93,0.93,0,0,1-.3-1.71,17,17,0,0,1,1.4-1c1-.6,2-1.2,2.7-1.71,0.2-1.63-.7-2.57-2.1-3.34-1-.6-2-1.2-2.9-1.8a1.86,1.86,0,0,1-.9-0.86c0.2-1.71-1.7-2.65-3.4-3.42a9.86,9.86,0,0,1-3-2.48c-1.9-2-2.8-4-2.4-6.42a37.53,37.53,0,0,0,.1-5.82c-1.3-.43-2.5.26-3.7-0.17-0.2-.77-0.4-1.63-0.6-2.48,4.7-1.88,4.6-5.05-.1-7.28a25.3,25.3,0,0,1-.1-7.28c0.2-1.63.3-1.71,1.8-3.51-0.4-.51-0.9-0.94-1.3-1.46s-0.2-1.11-1.4-1.37c-0.3,2.23-.2,4.54-2.9,6.59,1.1,0.34,2.1.68,2.6,0.86v6.33a12.34,12.34,0,0,0-2.5,1.28,10.79,10.79,0,0,0-1.4,2c0.6,1.63.8,3.34,3.9,3.59-0.7,2.23-.4,4.28-1.9,6.16a1.24,1.24,0,0,0,.4,1.8c1.2,1.37.6,2.48-1.1,3.34a10.77,10.77,0,0,0-4.3,4.19A12.89,12.89,0,0,1,582.5,67c-0.6.34-1.1,0.77-1.8,1.11,0.3,0.51.6,1,.9,1.63-1.5,2.14-4.9,3.25-6.3,5.39-2.2.09-2.2,0.09-3.6,1.37a4.94,4.94,0,0,0,.6.94A2.5,2.5,0,0,1,573,81a6.75,6.75,0,0,1-2.8,2.82c-1.2.68-2.5,1.37-2.3,2.65,0.1,0.43-.8.86-1.3,1.37,1.1,1.88,1.1,1.88,3.3,3.25a3.58,3.58,0,0,1,.1,1c-0.5,2.65.3,5.22,0.2,7.87s0,5.31.1,8,0.2,5.31.4,8c0.1,2.48.2,5.05-3.3,6.33-0.5,1.8,1.6,2.23,2.5,3.25-0.5,1.2-1.9,2.14-1.8,3.51a2.24,2.24,0,0,1-.8.94,32.92,32.92,0,0,1-6.2,3.68c-1.2-.51-2.5-0.94-3.6-1.46-1.3-1.28.1-2.48-.1-3.68a10.89,10.89,0,0,1,.6-3.85c-1-.17-2-0.43-3.1-0.6a3.91,3.91,0,0,0-.4,1.8,5.17,5.17,0,0,1,0,3.25c-0.4.86,0.3,1.88,0.5,2.82-1,.43-1.7.77-2.5,1.2-2.1,1.11-2.1,1.2-.1,2.65,0.8,0.6,1.2,1.37.7,2-0.9,1-.2,2.14-0.8,3.17a12.37,12.37,0,0,0-1.4,2.82c-0.5,1.28-.8,2.65-1.2,4-0.7,2.48-2.7,4.11-6.5,4.45-1.3.09-2.6,0.34-4.3,0.6,1.6,0.6,3.3.86,3.6,2.05a3.51,3.51,0,0,0,1.4.43c1.5,0.26,3,.34,3.6,1.71,0.2,0.51,1.7.51,2.5,1.2,1.8,1.46,1.9,1.37.1,3.25,0.7,0.77,1.4,1.63,2.2,2.4-0.2.26-.4,0.43-0.6,0.68-1.8,2.14-1.8,2.82.8,4.54a2.59,2.59,0,0,1,1.4,2.14c0.1,4.71.5,9.5,0.2,14.21a11.63,11.63,0,0,1-4.7,1.11c-0.6-.6-1.2-1.2-1.8-1.71a1.81,1.81,0,0,0-2.6.17,3.1,3.1,0,0,0-.4,1.88,25.48,25.48,0,0,0,.7,2.91c-2.1,2-4,4-8.2,3.42-0.3.43-.5,0.77-0.8,1.2a10.55,10.55,0,0,1,1.5,1.37,15.08,15.08,0,0,1,.9,1.8c0.8,1.63,1.5,3.34,2.2,5a4.91,4.91,0,0,1-1.5,6.16c-3,2.65-2.8,4.37.5,7a1.57,1.57,0,0,1,.4.68c-1.2.26-2.3,0.51-3.6,0.86v7.28c-3.4,2.05-7.8,3.42-11.1,5.56,2.7,1.28,2.7,1.28,3.9,2.82,1.6,0.26,3.2.43,5,.68a4.72,4.72,0,0,0,2.6,3.25,1.73,1.73,0,0,1,.7,2.74,12.67,12.67,0,0,1-.9,1.11c1.8,3.34,1.9,6.85,2,10.27,0.2,6.59.4,13.1,0.6,19.69,0.2,6.93.3,13.87,0.5,20.8,0,1.46.2,2.91,0.3,4.37,0,0.68-.2,1.46-0.3,2.31a19.32,19.32,0,0,1-2.4-.17l-35.4-7.7c-8.2-1.8-16.5-3.68-24.7-5.56-3.6-.86-7.3-0.86-11-1.2l-11-.77c-0.9-1,1.2-1.37,1-2.23-0.9-1.28-2.6-.43-4.1-0.68-0.9-1.88-.5-3.77-0.2-5.82a17.45,17.45,0,0,1-1.7-.43,9,9,0,0,0-1.5-.17c-0.3-.43-0.5-0.86-0.9-1.54-0.5.6-.8,1-1.1,1.46-0.8.09-1.7,0.09-2.7,0.17a7.2,7.2,0,0,1-.9-0.51c-0.6-.51-1-1.11-1.6-1.54-3.4-2.91-7.7-3.59-12.8-2.05-0.2.09-.5,0.09-0.9,0.26a13.1,13.1,0,0,1-4.1-2.82,2.45,2.45,0,0,1-.7-1.8c-0.1-1.46-.1-2.91-0.2-4.54-6.6-.68-13.2-1-20-1.2a5.39,5.39,0,0,0-.4,1.63c0,1,0,2,.1,3a3.1,3.1,0,0,1-1,2.31c-2,1.8-3.9,3.68-5.8,5.56a4.63,4.63,0,0,1-3.3,1.28,14.75,14.75,0,0,1-.4,1.46l-23-1.28c-0.8-1.37-.5-2.74-0.1-4.19-0.8-.09-1.5-0.26-2.3-0.34-4.4-.26-8.8-0.51-13.2-0.68-2.1-.09-2.2-0.09-4.3.94,0,1,1.2,2.05-.1,3.25-5.2-.17-10.5-0.34-15.8-0.6-4.8-.17-9.5-0.51-14.3-0.77-6.5-.34-13-0.86-19.4-1.2-4.8-.26-9.5-0.43-14.3-0.6-2.5-.09-5-0.34-7.6-0.43-3.8-.17-7.7-0.43-11.5-0.6a14.25,14.25,0,0,1-1.9-.17,6.41,6.41,0,0,1,.4-5.05,39.35,39.35,0,0,0-7.7-.34c-2.1.09-3.4,1.28-5.2,2a8,8,0,0,1,.3,5.05c-3.4-.17-5.4,1.46-7.6,2.65a1.39,1.39,0,0,0-.8,2c2.3,0.43,4.7.94,7,1.37,0.2,1.54-.6,2.4-2.4,2.91-4.6,1.37-9.2,2.91-13.8,4.28l-35.6,10.53c-8,2.31-16,4.54-24,6.76-6.6,1.88-13.3,3.85-19.8,5.73a13.83,13.83,0,0,1-4.6.6c-2.7-.17-5.5-0.26-8.4-0.34v-2a1.82,1.82,0,0,0-.6-0.26c-3.4-.17-6.9-0.43-10.3-0.6-1.1,0-2.3.26-3.6,0.34,0.2,0.51.4,0.86,0.6,1.37a9.5,9.5,0,0,1-3.8.17c-6.7-.34-13.4-0.86-20.1-1.2a10.92,10.92,0,0,1-4.1-.94c-0.4-2.91-1.2-5.73-.6-8.64,0.2-.77.5-1.54,0.9-2.65l-2.5-3.34c-4.9.09-6.3,2.57-7.9,5,0.9,2.74.2,5.48,0,8.13a6.43,6.43,0,0,0,0,2.4,11.16,11.16,0,0,1-.2,5.14,11.84,11.84,0,0,1-4.9.17,11.2,11.2,0,0,0-.4-1.54c-2.8-.34-5.6-0.68-8.4.34a7.06,7.06,0,0,1-2.7.26c-3.8-.34-7.6-0.77-11.5-1.11a9.47,9.47,0,0,1-1.5-.34c-0.8-1.46-.4-2.91-0.2-4.54a60.36,60.36,0,0,0-6.9-.86c-2.4-.26-4.7-0.6-7.3.26v3.42c-0.7,0-1.2.09-1.7,0.09-6.2-.68-12.3-1.46-18.5-2.14a17,17,0,0,1-2.5-.51,11,11,0,0,1-.2-1.88,15.63,15.63,0,0,1,.3-1.8c-0.6-.17-1.3-0.43-2-0.6-3.1-.43-6.3-0.6-9.4-1.28-1.5-.34-3.4,0-5.1.09a7,7,0,0,1-3-.34,21.09,21.09,0,0,0-4.2-.77V0H1200V241.46c-1,.6-2,1.11-3,1.71-0.5.26-.9,0.68-1.4,0.94-2.2.86-3.6,2.31-5.4,3.42-1.5,1-3,2.05-4.6,3-2.8,1.63-5.5,3.34-8.1,5.05-1.8,1.2-3.6,2.31-5.4,3.51-2.4,1.54-4.7,3.08-7.1,4.62-1.4.94-2.7,2-4.1,2.82-1.7,1.11-3.8,2-5.4,3.17-2.3,1.71-5,3.08-7.3,4.79-1.6,1.2-3.6,2.14-5.3,3.25-0.9.51-1.5,1.2-2.4,1.8-2.9,1.88-5.7,3.68-8.8,5.65-2.1.17-3.9-.6-6.2-1-0.2-.6-0.5-1.2-0.7-1.8a5.9,5.9,0,0,0-2.9-3.25c-3.5-2-7.1-3.42-11.9-3.17a27.62,27.62,0,0,1-10.9-1.28,9.61,9.61,0,0,1-1.7-.68c-1.8-.77-1.8-1.11-0.3-2.74a11.18,11.18,0,0,1-1-1.28,8.89,8.89,0,0,1-.1-1.63,17.38,17.38,0,0,0-.8-2.05c-0.8-2.31-.8-2.31.5-4.45-0.7-.86-2-0.86-3.2-0.77a10.63,10.63,0,0,0-1.8.77c2.6,1.63,2.3,3.68,1.8,5.65a1.68,1.68,0,0,0,.2,1.54c0.7,0.94.1,1.71-.8,2.48,0.6,0.43,1.1.86,1.6,1.28-0.5,1.37-2.3,1.71-3.7,2.48-4.5-1.2-9-2.4-13.4-3.59a9.61,9.61,0,0,1-1.7-.68c-10.9-6-21.9-12-32.8-18a21,21,0,0,1-2.4-1.46,6.3,6.3,0,0,0-7-.51,4.33,4.33,0,0,1-2.5.43c-14.9-.6-29.8-1.28-44.7-1.88-8.1-.34-16.2-0.51-24.4-0.77-6-.26-12-0.6-17.9-0.77l-21.6-.77c-5.9-.17-11.7-0.43-17.5-0.68a20.47,20.47,0,0,1-2.1-.26c-0.9-1.46-.7-3-0.8-4.54s-0.2-3.08-.3-4.62a4.05,4.05,0,0,0-.7-1.8c-2-2.23-1.6-4.71-1.9-7.1-0.3-3.17-.7-6.33-1.1-9.42a9.57,9.57,0,0,0-1-1.88c-0.5,2.57,0,4.62-.4,6.68a25.43,25.43,0,0,0,.1,6.16c-3.3-.6-4.6-1.54-4.6-3.42a67.91,67.91,0,0,0-1.2-8.9,18.81,18.81,0,0,0-.8-2.74,2.63,2.63,0,0,0-1.2,2.65c0,2.74,0,5.39-.1,8.13a2,2,0,0,1-.4.86c-2.5-.94-0.3-3.17-2.6-4.11-0.3.77-.5,1.54-0.8,2.31-2-.34-2-0.34-5-2.65v-2.82c-0.1-1.28-.2-2.57,1.4-3.59a1.23,1.23,0,0,0,.3-2.05c-1.2-.94-0.9-2.05-1.1-3.17-1.7.09-.9,1.11-1.6,1.63a0.81,0.81,0,0,1-1.1-.51,55.88,55.88,0,0,1-.4-10.78,6.58,6.58,0,0,1,5.2-1.2c0.1-.94-0.6-0.94-1.2-0.86a4.28,4.28,0,0,1-2.3-.26c-0.6-.34-0.4-0.77-0.6-1.2-0.1-.26-1-0.34-1.9-0.6a8.13,8.13,0,0,1-.9-1.8,6.52,6.52,0,0,0-3.9-3.68c-1-.43-2-0.94-3-1.46a9,9,0,0,1-.1-4.88,2,2,0,0,1,.6-1.28c1.7-1.2,1.8-2.82,2.8-4.19-5-5-7.8-10.36-7.4-16.52,0.9-.43,1.7-0.77,2.7-1.28,0.1,0.26.1-.6,0.1-1.37v-0.94h-0.1A3,3,0,0,0,866.6,160.06Zm169.8,83.28c-1.3-.68-0.4-1.71-1.3-2.82v6.59c0.5-1.71.9-2.74,1.3-3.77l0.6-.26ZM862.8,139.26c0.3-.68.6-1.2,0.9-1.88a15.94,15.94,0,0,1-2.4.51,4.54,4.54,0,0,0-2.2.34c-0.6.26-1,.51-0.5,1.2C859.9,139.35,861.3,139.26,862.8,139.26ZM534.9,186.68a1.78,1.78,0,0,0-1.9-1.37,1.2,1.2,0,0,0-1.2,1.2,1.45,1.45,0,0,0,1.6.94A10.33,10.33,0,0,0,534.9,186.68ZM649,168.79c-1,1.11-.5,2.05,0,3C649.5,170.85,650.1,169.9,649,168.79Zm266.1,74.47V243a4.83,4.83,0,0,0-1.2-.51,1.1,1.1,0,0,0-.6.51c0,0.43.6,0.51,1.1,0.43A1.63,1.63,0,0,0,915.1,243.26ZM573.5,72.75c-0.2-.09-0.4-0.09-0.6-0.17-0.1.17-.3,0.34-0.2,0.43a0.84,0.84,0,0,0,.5.17A1.12,1.12,0,0,0,573.5,72.75Zm43,4.71a0.36,0.36,0,0,0-.2-0.17l-0.2.17,0.3,0.26A0.29,0.29,0,0,1,616.5,77.46ZM402.6,256.52a0.35,0.35,0,0,0-.2.17,0.29,0.29,0,0,0,.1.17,0.35,0.35,0,0,0,.2-0.17C402.8,256.7,402.7,256.61,402.6,256.52Z" transform="translate(0.2)"/>
    <path class="cls-3" d="M706.3,207.31a4.14,4.14,0,0,1,1-.77c0.9-.43,1.8-0.68,2.2-1.46a2.07,2.07,0,0,1,2.2-.86c1.3,0.09,2.6,0,4.1,0,0.8,0.34,1.4,1.54,3,.6v-4.37c0-1.11.7-1.8,1.4-1.63a1.29,1.29,0,0,1,1.2,1.54,6.11,6.11,0,0,0,1.2,4.37c1.3,0.34,2.7-.17,4.2-0.17,1.3-.09,2.7.17,4-0.51-0.1-.43-0.3-0.94-0.4-1.46a35.87,35.87,0,0,1-.3-4.62c0-1.37.2-1.46,2.9-1.46,0.9,2.4,0,4.88,1,7.19,3.6,0.26,3.6.26,4.8-1.37,0.9,0,1.8.09,2.7,0a17.53,17.53,0,0,0,2.7-.6,6.23,6.23,0,0,1,1.9.94c1,1,2.5,1.2,4.1,1.37,7.4,0.51,14.8,1,22.2,1.63,1,0.09,2.1,0,3.1.09a0.48,0.48,0,0,1,.4.43,0.51,0.51,0,0,1-.4.34h-2c-9.1-.6-18.3-1.28-27.4-1.88-1.7-.09-3.5-0.09-5.2,0-10.2.68-20.4,1.46-30.5,2.23a31.38,31.38,0,0,0-4.1.43h0Z" transform="translate(0.2)"/>
    <path class="cls-4" d="M706.2,207.31c-0.6.86-1.9,0.86-2.9,1.28l0.1,0.09c0.4-1.2.6-1.28,2.8-1.37h0Z" transform="translate(0.2)"/>
    <path class="cls-5" d="M703.3,208.51l-2.2.26h0.1c0.6-.09,1.4-0.17,2.1-0.26h0Z" transform="translate(0.2)"/>
    <path class="cls-6" d="M862.8,139.26c-1.5.09-2.9,0.17-4.2,0.17-0.6-.68-0.1-0.94.5-1.2a4.54,4.54,0,0,1,2.2-.34,10.58,10.58,0,0,0,2.4-.51C863.4,138,863.1,138.58,862.8,139.26Z" transform="translate(0.2)"/>
    <path class="cls-7" d="M1036.3,243.34l-1.1,3.77v-6.59c0.8,1.11,0,2.23,1.3,2.82h-0.2Z" transform="translate(0.2)"/>
    <path class="cls-8" d="M534.9,186.68a10.33,10.33,0,0,1-1.5.77,1.45,1.45,0,0,1-1.6-.94,1.28,1.28,0,0,1,1.2-1.2A1.78,1.78,0,0,1,534.9,186.68Z" transform="translate(0.2)"/>
    <path class="cls-9" d="M649,168.79c1.1,1.11.5,2.05,0,3C648.5,170.85,648.1,169.9,649,168.79Z" transform="translate(0.2)"/>
    <path class="cls-10" d="M915.1,243.26a1.63,1.63,0,0,1-.7.17c-0.5.09-1.1,0-1.1-.43a1.1,1.1,0,0,1,.6-0.51,7.23,7.23,0,0,1,1.2.51C915.2,243,915.1,243.17,915.1,243.26Z" transform="translate(0.2)"/>
    <path class="cls-11" d="M573.5,72.75a0.72,0.72,0,0,1-.3.43,0.51,0.51,0,0,1-.5-0.17c-0.1-.09.1-0.26,0.2-0.43A1.59,1.59,0,0,1,573.5,72.75Z" transform="translate(0.2)"/>
    <path class="cls-12" d="M657.5,184.8a1.63,1.63,0,0,1,.7.17,3.7,3.7,0,0,1,.5.6,2.88,2.88,0,0,1-.9-0.09,3.22,3.22,0,0,1-.3-0.68h0Z" transform="translate(0.2)"/>
    <path class="cls-13" d="M616.5,77.46c0,0.09-.1.17-0.1,0.26l-0.3-.26,0.2-.17A0.2,0.2,0,0,0,616.5,77.46Z" transform="translate(0.2)"/>
    <path class="cls-14" d="M866.6,160.06a3,3,0,0,0-.1-0.94h0.1v0.94h0Z" transform="translate(0.2)"/>
    <path class="cls-15" d="M1036.4,243.34l0.6-.26a3.57,3.57,0,0,0-.6.26h0Z" transform="translate(0.2)"/>
    <path class="cls-16" d="M402.6,256.52a0.25,0.25,0,0,1,.1.17,0.35,0.35,0,0,1-.2.17c-0.1-.09-0.2-0.17-0.1-0.17A0.35,0.35,0,0,0,402.6,256.52Z" transform="translate(0.2)"/>
  </g>
</svg>
