<?xml version="1.0" encoding="utf-8"?>
<!-- Generator: Adobe Illustrator 19.2.1, SVG Export Plug-In . SVG Version: 6.00 Build 0)  -->
<svg version="1.1" id="Layer_1" xmlns="http://www.w3.org/2000/svg" xmlns:xlink="http://www.w3.org/1999/xlink" x="0px" y="0px"
	 viewBox="0 0 1200 457" style="enable-background:new 0 0 1200 457;" xml:space="preserve">
<style type="text/css">
	.st0{opacity:0;fill:#FFFFFF;}
</style>
<g>
	<path d="M1200.8,282.8c0,119.2,0,238.4,0,357.6c-400,0-800,0-1200,0c0-98.1,0-196.2,0-294.3c1.4,0.3,3,0.3,4.2,0.9
		c1,0.5,1.9,0.5,3,0.4c1.7-0.1,3.6-0.5,5.1-0.1c3.1,0.8,6.3,1,9.4,1.5c0.7,0.1,1.4,0.5,2,0.7c-0.1,0.8-0.3,1.5-0.3,2.1
		c0,0.7,0.1,1.4,0.2,2.2c0.9,0.2,1.7,0.5,2.5,0.6c6.2,0.9,12.3,1.7,18.5,2.5c0.5,0.1,1,0,1.7-0.1c0-1.5,0-2.8,0-4
		c2.6-1,4.9-0.6,7.3-0.3c2.3,0.3,4.7,0.4,6.9,1c-0.2,1.8-0.6,3.5,0.2,5.3c0.5,0.1,1,0.3,1.5,0.4c3.8,0.5,7.6,0.9,11.5,1.3
		c0.9,0.1,1.9,0,2.7-0.3c2.8-1.2,5.6-0.9,8.4-0.4c0.1,0.6,0.2,1.1,0.4,1.8c1.6,0.1,3.2,0.4,4.9-0.2c0.4-2,0.5-4,0.2-6
		c-0.2-1,0-1.8,0-2.8c0.2-3.2,0.8-6.4,0-9.5c1.6-2.8,3-5.7,7.9-5.8c0.9,1.5,1.8,2.9,2.5,3.9c-0.4,1.3-0.7,2.2-0.9,3.1
		c-0.7,3.4,0.1,6.7,0.6,10.1c1.3,0.7,2.6,1,4.1,1.1c6.7,0.4,13.4,1,20.1,1.4c1.2,0.1,2.6,0.3,3.8-0.2c-0.2-0.6-0.4-1-0.6-1.6
		c1.3-0.2,2.4-0.5,3.6-0.4c3.5,0.1,6.9,0.4,10.3,0.7c0.2,0,0.5,0.2,0.6,0.3c0,0.7,0,1.4,0,2.3c2.9,0.1,5.7,0.2,8.4,0.4
		c1.7,0.1,3.1-0.2,4.6-0.7c6.6-2.3,13.2-4.5,19.8-6.7c8-2.7,16-5.2,24-7.9c11.9-4,23.8-8.1,35.6-12.3c4.6-1.6,9.2-3.4,13.8-5
		c1.8-0.6,2.6-1.6,2.4-3.4c-2.3-0.5-4.7-1.1-7-1.6c-0.4-1,0-1.8,0.8-2.3c2.2-1.5,4.2-3.3,7.6-3.1c0.4-2,0.4-3.9-0.3-5.9
		c1.8-0.8,3.1-2.1,5.2-2.3c2.5-0.2,5,0,7.7,0.4c-1,2-0.9,3.9-0.4,5.9c0.6,0.1,1.3,0.2,1.9,0.2c3.8,0.2,7.7,0.5,11.5,0.7
		c2.5,0.2,5,0.4,7.6,0.5c4.8,0.3,9.6,0.4,14.3,0.7c6.5,0.4,13,0.9,19.4,1.4c4.8,0.3,9.5,0.6,14.3,0.9c5.3,0.3,10.6,0.5,15.8,0.7
		c1.2-1.4,0.1-2.6,0.1-3.8c2.2-1.2,2.2-1.2,4.3-1.1c4.4,0.2,8.8,0.5,13.2,0.8c0.8,0,1.5,0.3,2.3,0.4c-0.4,1.7-0.7,3.3,0.1,4.9
		c7.7,0.5,15.4,1,23,1.5c0.2-0.7,0.3-1.2,0.4-1.7c1.4-0.1,2.5-0.5,3.3-1.5c1.8-2.2,3.8-4.4,5.8-6.5c0.8-0.8,1.1-1.7,1-2.7
		c-0.1-1.2-0.1-2.3-0.1-3.5c0-0.6,0.2-1.2,0.4-1.9c6.8,0.2,13.3,0.6,20,1.4c0.1,1.9,0.1,3.6,0.2,5.3c0.1,0.7,0.2,1.6,0.7,2.1
		c1.2,1.2,2.4,2.5,4.1,3.3c0.4-0.1,0.7-0.2,0.9-0.3c5.1-1.8,9.4-1,12.8,2.4c0.6,0.6,1,1.3,1.6,1.8c0.2,0.2,0.6,0.4,0.9,0.6
		c0.9-0.1,1.9-0.2,2.7-0.2c0.4-0.6,0.7-1,1.1-1.7c0.4,0.8,0.6,1.3,0.9,1.8c0.5,0.1,1,0.1,1.5,0.2c0.6,0.1,1.2,0.3,1.7,0.5
		c-0.2,2.4-0.7,4.6,0.2,6.8c1.5,0.3,3.2-0.7,4.1,0.8c0.2,1-1.9,1.4-1,2.6c3.7,0.3,7.4,0.6,11,0.9c3.7,0.3,7.4,0.4,11,1.4
		c8.2,2.2,16.4,4.4,24.7,6.5c11.8,3,23.6,6,35.4,9c0.7,0.2,1.5,0.1,2.4,0.2c0.1-1,0.3-1.9,0.3-2.7c0-1.7-0.2-3.4-0.3-5.1
		c-0.2-8.1-0.3-16.2-0.5-24.3c-0.2-7.7-0.4-15.3-0.6-23c-0.1-4-0.3-8-2-12c0.3-0.4,0.6-0.8,0.9-1.3c0.7-1.2,0.5-2.5-0.7-3.2
		c-1.6-1-2.2-2.3-2.6-3.8c-1.8-0.3-3.5-0.6-5-0.8c-1.2-1.8-1.2-1.8-3.9-3.3c3.4-2.6,7.7-4.1,11.1-6.5c0-2.9,0-5.6,0-8.5
		c1.2-0.3,2.4-0.7,3.6-1c-0.2-0.4-0.3-0.6-0.4-0.8c-3.3-3.1-3.5-5.1-0.5-8.2c2.2-2.2,2.5-4.6,1.5-7.2c-0.7-1.9-1.5-3.9-2.2-5.8
		c-0.3-0.7-0.5-1.5-0.9-2.1c-0.4-0.6-1-1.1-1.5-1.6c0.3-0.5,0.5-0.9,0.8-1.4c4.2,0.7,6.1-1.7,8.2-4c-0.2-1.1-0.6-2.3-0.7-3.4
		c-0.1-0.7,0.1-1.5,0.4-2.2c0.4-0.9,1.8-1,2.6-0.2c0.6,0.7,1.2,1.3,1.8,2c1.8-0.2,3.3-0.4,4.7-1.3c0.3-5.6-0.1-11.1-0.2-16.6
		c0-1-0.5-1.8-1.4-2.5c-2.6-2-2.6-2.8-0.8-5.3c0.2-0.3,0.4-0.5,0.6-0.8c-0.8-1-1.5-2-2.2-2.8c1.9-2.2,1.7-2.1-0.1-3.8
		c-0.8-0.7-2.3-0.8-2.5-1.4c-0.6-1.6-2.1-1.6-3.6-2c-0.5-0.1-1.3-0.3-1.4-0.5c-0.4-1.4-2.1-1.7-3.6-2.4c1.7-0.3,3-0.6,4.3-0.7
		c3.8-0.4,5.8-2.3,6.5-5.2c0.4-1.6,0.7-3.1,1.2-4.7c0.4-1.1,0.9-2.2,1.4-3.3c0.7-1.2-0.1-2.5,0.8-3.7c0.6-0.7,0.2-1.6-0.7-2.3
		c-2-1.7-2-1.8,0.1-3.1c0.7-0.4,1.5-0.8,2.5-1.4c-0.2-1.1-0.9-2.3-0.5-3.3c0.5-1.3,0.1-2.5,0-3.8c-0.1-0.7,0.3-1.4,0.4-2.1
		c1.2,0.3,2.1,0.5,3.1,0.7c-0.2,1.6-0.8,3.1-0.6,4.5c0.2,1.4-1.2,2.9,0.1,4.3c1.2,0.5,2.4,1.1,3.6,1.7c2.5-1.2,4.3-2.8,6.2-4.3
		c0.4-0.3,0.8-0.7,0.8-1.1c-0.1-1.6,1.2-2.7,1.8-4.1c-1-1.2-3-1.7-2.5-3.8c3.5-1.5,3.4-4.4,3.3-7.4c-0.1-3.1-0.3-6.2-0.4-9.3
		c-0.1-3.1-0.2-6.2-0.1-9.3c0.1-3.1-0.6-6.1-0.2-9.2c0.1-0.4-0.1-0.8-0.1-1.2c-2.3-1.6-2.3-1.6-3.3-3.8c0.4-0.5,1.3-1.1,1.3-1.6
		c-0.2-1.6,1.1-2.3,2.3-3.1c1.3-0.9,2.2-2,2.8-3.3c0.7-1.6,0.7-2.8-0.7-4.1c-0.3-0.3-0.4-0.7-0.6-1.1c1.4-1.6,1.4-1.6,3.6-1.6
		c1.5-2.5,4.8-3.8,6.3-6.3c-0.3-0.7-0.6-1.3-0.9-1.9c0.6-0.5,1.2-0.9,1.8-1.3c2-1.4,3.6-3.1,4.6-5.2c0.9-1.9,2.2-3.6,4.3-4.9
		c1.7-1.1,2.3-2.3,1.1-3.9c-0.5-0.7-0.8-1.4-0.4-2.1c1.5-2.1,1.2-4.5,1.9-7.2c-3-0.3-3.3-2.3-3.9-4.2c0.5-0.8,0.7-1.7,1.4-2.3
		c0.6-0.6,1.6-1,2.5-1.5c0-2.3,0-4.5,0-7.4c-0.5-0.2-1.5-0.6-2.6-1c2.7-2.4,2.6-5.1,2.9-7.7c1.2,0.3,1.1,1,1.4,1.6
		c0.3,0.6,0.8,1.1,1.3,1.7c-1.5,2.1-1.7,2.2-1.8,4.1c-0.3,2.9-0.3,5.7,0.1,8.5c4.8,2.6,4.8,6.3,0.1,8.5c0.2,1,0.4,2,0.6,2.9
		c1.3,0.5,2.5-0.4,3.7,0.2c0,2.3,0.2,4.6-0.1,6.8c-0.4,2.8,0.6,5.2,2.4,7.5c0.9,1.1,1.7,2.1,3,2.9c1.6,1,3.5,2,3.4,4
		c0,0.3,0.5,0.7,0.9,1c0.9,0.7,1.9,1.5,2.9,2.1c1.4,0.9,2.3,2,2.1,3.9c-0.8,0.5-1.8,1.2-2.7,2c-0.5,0.4-1,0.7-1.4,1.2
		c-0.6,0.6-0.5,1.6,0.3,2c1.4,0.6,2.9,1.5,4.3,1.4c2.1-0.1,2.7,0.6,3.3,2c0.3,0.8,0.9,1.5,1.6,2.1c1.2,1.1,2.6,2,4,3.1
		c-0.4,1-0.8,1.9-1.3,2.8c-0.5,0.9-1,1.7-1.6,2.5c-0.8,1.1,0.2,2,0.2,3.1c-0.1,8.7,0,17.5,0.1,26.2c0,0.6,0,1.3,0.1,1.9
		c0,1,0.5,1.9,1.5,2.5c0.6,0.4,1.2,0.8,1.6,1.1c0.2,1.3-0.6,2-1.4,2.7c-1.2,1-1.4,1.6-0.2,2.5c1.2,0.9,0.5,2.2,1.4,2.9
		c1,0.8,2.4,1.2,3.6,1.9c0.2,0.1,0.4,0.3,0.6,0.5c1.5,1.2,3,2.4,4.9,3.2c0.7,0.3,1.2,1.1,1.8,1.6c0.3,0.3,0.7,0.4,1.4,0.8
		c0.1-0.9,0.4-1.7,0.2-2.2c-0.6-1-1.6-1.9-2.3-2.8c1-2.6,1-2.6-1.6-4.9c0.9-1.7,0.9-1.7,3.8-3.6c0-2.8-0.7-5.7-0.6-8.5
		c1.4-0.6,2.5-0.5,3.8,0.3c-0.8,2.7-0.6,5.5-0.7,8.2c3.1,1.8,3.1,1.8,3.9,3.5c-2.6,2.1-2.6,2.1-1.5,5.1c-2,1.4-3,3.1-2.1,5.2
		c0.6,0.5,1.1,1,1.6,1.5c1.5,1.3,2.3,2.8,2.1,4.6c-0.1,0.8,0.2,1.6,0.3,2.5c1.7-0.1,3.2-0.2,4.6-0.3c0,0.2,0,0.4-0.1,0.6
		c-0.2,0.5-0.7,1-0.5,1.4c0.1,0.5,0.7,1,1.2,1.2c1,0.4,2.2,0.8,3.3,1.1c1.2,0.3,2.5,0.5,3.9,0.7c-2.6,1.3-2.6,1.3-3.8,2.8
		c-1,0.1-2,0.2-3.1,0.2c-2.6,0.1-3.8,1.7-5.2,3.1c-0.3,0.3-0.3,1.1-0.1,1.5c0.2,0.6,0.8,1.1,1.3,1.7c-0.2,0.6-0.5,1.3-0.9,2
		c-0.3,0.7-0.7,1.3-1.1,2c0.4,0.5,0.7,0.8,1,1.1c0.9,1,1,2.2,0.7,3.4c-0.3,1.2-1.5,1.7-2.7,2.2c-0.2,0.1-0.3,0.3-0.6,0.7
		c0,0.7,0,1.7,0,2.7c0.3,8.7,0.5,17.5,0.9,26.2c0.1,2.2,0.5,4.5,0.8,6.7c0.1,0.7,0.2,1.5,1.2,1.8c1.3-1.1,1.5-2.4,1.1-3.9
		c-0.2-0.8-0.4-1.7-0.3-2.5c0.4-3.4,0-6.8-0.6-10.2c-0.2-1.4,0.2-2.5,1.8-3.3c0.4-0.2,0.8-0.5,1.4-0.8c-0.2-1.1-0.5-2.1-0.7-3.2
		c0.7-0.7,1.5-1.4,2.3-2.2c1.1,0.8,2.2,1.5,3.3,2.3c-0.3,0.5-0.5,0.9-0.7,1.2c-1.2,2.1-0.8,3.9,1.4,5.4c1.3,0.9,2.8,1.6,3,3.2
		c0,0.4,0.9,0.8,1.3,1.1l0.1-0.1c-1.5,0.3-2.7,0.7-2.7,2.2c0,1.7-0.2,3.4-1.5,4.9c-1.1,1.2-1,2.3-0.7,3.4c1.5,0.9,2.7,1.7,4,2.6
		c-0.3,2.4,0.7,4.2,3,5.7c1.8,1.2,2.1,2.9,1.8,4.7c-0.2,0.8-0.6,1.6-1,2.8c2.5,0.7,2.1,2.6,2.3,4.2c0.1,0.8,0.1,1.7,0.1,2.6
		c0.1,1.6,0.2,3.2,0.3,4.9c4,0.8,7.9,0.9,12.2,1.6c-2.1,1.5-4.4,2.4-4.3,4.4c-0.5,0.3-0.9,0.5-1.2,0.6c-2.5,1-4.4,2.3-5.1,4.5
		c-0.2,0.5-0.6,1-1.1,1.3c-1.8,0.9-2.1,2.4-1.1,3.6c0.8,1,0.4,1.8,0.2,2.7c-0.2,0.8-0.5,1.6-0.7,2.3c0.5,0.2,0.7,0.4,0.9,0.4
		c6,0.5,11.9,1,17.9,1.4c0.6,0,1.2-0.2,2.1-0.3c-0.3-1.4-0.5-2.6-0.8-3.9c-1.7-0.6-1.2-2.2-2.3-3.3c-2.2-0.3-4.4-0.5-7.3-0.9
		c2.4-1.4,4.4-2.1,6.3-3c1.9-1,3.9-1.9,5.8-2.8c1.9-0.9,4-1.8,5.8-2.8c1.8-1,4.1-1.5,5.7-2.6c-0.4-1-1.1-1.7-1.1-2.5
		c0-1.8-1.7-3-2.4-4.5c-0.2-0.5-1.5-0.6-1-1.6c2-0.8,4.1-1.7,6.2-2.6c1.1-0.5,2.5-0.8,3.2-1.8c0.8-0.1,1.5-0.2,2.2-0.3
		c1-0.4,2.4-0.5,2.9-1.5c1.4-0.2,2.8-0.5,4.3-0.6c10.2-0.9,20.4-1.8,30.5-2.6c1.7-0.1,3.5-0.2,5.2,0c9.1,0.7,18.3,1.5,27.4,2.2
		c0.6,0.1,1.3,0.1,2,0c0.2,0,0.4-0.3,0.4-0.4c0-0.2-0.2-0.5-0.4-0.5c-1-0.1-2.1,0-3.1-0.1c-7.4-0.6-14.8-1.2-22.2-1.9
		c-1.6-0.1-3.1-0.3-4.1-1.6c-0.4-0.5-1.3-0.7-1.9-1.1c-1,0.3-1.8,0.6-2.7,0.7c-0.9,0.1-1.8,0-2.7,0c-1.3,1.9-1.3,1.9-4.8,1.6
		c-1.1-2.7-0.1-5.7-1-8.4c-2.6,0-2.9,0.1-2.9,1.7c0,1.8,0.2,3.6,0.3,5.4c0.1,0.6,0.2,1.2,0.4,1.7c-1.3,0.8-2.7,0.6-4,0.6
		c-1.4,0.1-2.8,0.6-4.2,0.2c-1.1-1.7-1.3-3.4-1.2-5.1c0-0.8-0.1-1.5-1.2-1.8c-0.7-0.2-1.4,0.6-1.4,1.9c0,1.7,0,3.4,0,5.1
		c-1.6,1.1-2.2-0.4-3-0.7c-1.5,0-2.8,0-4.1,0c-1.1,0-1.9,0.2-2.2,1c-0.4,0.9-1.3,1.3-2.2,1.7c-0.4,0.2-0.6,0.6-1,0.9
		c-2.2,0-2.5,0.2-2.9,1.5c-0.8,0.1-1.5,0.2-2.3,0.2c-0.6,0.1-1.2,0.2-1.8,0.3c-1.1-1.4-0.5-3.1-1.7-4.8c0,1.6,0,2.8,0,3.9
		c0,0.4,0.1,0.9-0.1,1.3c-0.2,0.3-0.7,0.7-1.1,0.8c-0.3,0-1.1-0.4-1.1-0.6c0.1-1.4-1.2-1.3-2.5-1.7c-0.1-1.2-0.4-2.4-0.2-3.7
		c0.3-1.6-0.1-3.4,1.3-4.9c0.5-0.6,0.6-1.5-0.5-1.9c-0.7-0.3-0.9-0.7-1-1.3c-0.2-1.9-0.3-3.8-0.5-5.7c-0.1-1-0.1-2,1-2.9
		c1-0.7,0.9-2.2,0-2.6c-2.1-1.1-1.4-2-0.3-3.1c0.6-0.7,0.7-1.6,0-2.1c-1.2-0.9-1.1-1.8-1.2-2.9c0-1.1-0.1-2.1-0.2-3
		c-1.6-1.7-3.8-2.5-5.1-4c4.7-5,9.2-9.8,13.8-14.7c4.9-5.3,9.4-10.8,12.7-17c3-5.8,6.3-11.5,9.5-17.2c3.5-6.2,6.5-12.6,8.5-19.2
		c0.3-0.9,0.6-1.9,0.9-2.8c0.4-1.1,1.2-2.2,0.1-3.3c-0.2-0.2-0.1-0.7,0.1-0.9c1.4-1,0.9-2.4,0.9-3.6c-0.1-2.5,0.4-5,1.1-7.5
		c2.2,0,4.3-0.2,6.3,0.5c-0.9,1.5-0.9,1.5-0.4,3.1c-1.7,0.5-3.6-0.4-5.6,0.2c0,1-0.2,1.9-0.1,2.9c0.1,1.5-0.2,3,1.2,4.3
		c0.3,0.2,0.2,0.8,0,1.2c-0.5,0.9-0.3,1.6,0.1,2.5c3.1,7.5,6.7,14.8,11.2,21.9c2.3,3.6,4.5,7.3,6.8,10.9c4.8,7.6,9.2,15.4,16.3,21.9
		c4.8,4.4,9.1,9.2,13.7,13.8c1,1,2,1.9,3.2,3c-1.7,0.7-3.2,1.4-5,2.1c0.8,2.8-0.6,5.5,0.1,8.3c0.2,0.9,0.2,1.9,0,2.9
		c-0.4,1.5,0,3,0.2,4.4c0.2,1.6,0.3,3.2,0.4,4.8c0.1,1.3,0.1,2.5,0.1,3.8c0.1,3.5,0.2,7,0.2,10.5c0,1.1-0.8,2.4-0.4,3.4
		c0.4,1.2,1.6,2.1,2.4,3.2c-0.1,0.2-0.2,0.4-0.3,0.5c-0.2,0.2-0.4,0.3-0.6,0.4c-0.6,0.8-0.5,1.5,0.5,1.9c0.7,0.3,1.5,0.5,2.2,0.7
		c6.1,1.8,12.3,3.6,18.4,5.4c0.5,0.2,1,0.5,1.8,1c-2.3,0.8-4.3,1.6-6.3,2c-2.4,0.6-3.3,2-3.6,3.8c-0.1,0.9-0.1,1.9-0.1,2.9
		c0.1,4.1,0.2,8.3,0.2,12.4c0,1.1-0.4,2.3-0.7,3.4c-0.1,0.3-0.6,0.5-0.9,0.7c-1.5-0.6-1-2.5-3-2.5c-0.5,1.5-0.5,1.5,0.3,2.9
		c1.3,0.1,2.7,0.1,3.9,0.5c1.4,0.5,2.6,0.3,3.8-0.1c1.2-0.4,2.4-0.8,3.6-1.3c9.3-3.7,18.6-7.5,27.8-11.2c0.6-0.2,1.1-0.6,1.8-0.9
		c0.1-3.8,0.2-7.5,0.3-11.4c0.4,0.1,0.6,0.1,0.6,0.2c1.2,3.1,0.5,6.5,1.7,9.8c2,0.1,3.4-0.8,4.9-1.7c0.2-1.8,0.4-3.6,0.6-5.4
		c0.7-0.3,1.2-0.5,1.9-0.7c0.9-2.6,0-5.4,0.8-8.1c2.2,1.4,0.7,3.6,2.2,5.2c0.4-0.3,0.7-0.5,0.8-0.7c1.4-2.9,2.3-5.8,2.5-8.9
		c0.1-0.9,0-1.8,1.3-2.4c1.2-0.6,1.1-1.5,0.2-2.4c-0.4-0.4-1-0.7-1.4-1.1c-0.6-0.5-0.4-1.2,0.3-1.6c0.2-0.1,0.5-0.1,0.7-0.2
		c1.4-0.8,1.6-1.4,0.4-2.6c-0.3-0.3-0.9-0.5-0.7-1c0.4-1.2-0.6-1.5-1.7-1.6c-0.7-0.1-1.4,0-2.2-0.1c0.1-0.3,0.1-0.5,0.1-0.5
		c0.2-0.1,0.4-0.4,0.6-0.4c2.7,0.1,3.9-0.9,4.5-3c0.8-3,2-6,6-7.5c0.7-0.3,1.5-1.1,1.5-1.8c0.1-2.2,0.5-4.6-1.3-6.5
		c-1.3-1.4-2.1-2.9-3.3-4.3c1.2-2.1,2.6-4.1,3.5-6.3c0.9-2.2,1.6-4.4,1.6-6.7c1.4-2.2,0.6-4.6,0.8-7c-1-0.6-2-1.3-3-2
		c-0.7-0.5-1-1.2-0.6-1.7c1.1-1.3,1.4-3.2,3.8-3.9c0-1,0-1.9,0-2.9c0-1.6,0.3-3.2-1.4-4.4c-0.6-0.4-0.2-1.2,0.5-1.7
		c0.8-0.6,1.6-0.6,2.5,0c0.7,0.5,0.8,1.1,0.4,1.7c-0.3,0.6-1,1.1-0.9,1.7c0.2,2.4,0.5,4.9,0.8,7.3c0,0.1,0.4,0.3,0.6,0.3
		c0.2,0,0.5-0.2,0.5-0.4c0-0.7-0.6-1.5,1-1.9c0.1,0.6,0.1,1.2,0.4,1.7c0.4,0.5,1.1,0.9,1.6,1.3l0,0c0,0.9,0,1.9,0,2.8
		c-1,0.5-1.8,1-2.7,1.5c-0.4,7.2,2.4,13.5,7.4,19.3c-1.1,1.6-1.1,3.5-2.8,4.9c-0.4,0.3-0.5,1-0.6,1.5c-0.5,1.9-0.3,3.8,0.1,5.7
		c1,0.6,2,1.2,3,1.7c2.1,1,3.3,2.4,3.9,4.3c0.3,0.8,0.7,1.6,0.9,2.1c0.9,0.3,1.7,0.4,1.9,0.7c0.2,0.5,0,1,0.6,1.4
		c0.7,0.5,1.4,0.4,2.3,0.3c0.6,0,1.4-0.1,1.2,1c-1.9-0.4-3.6,0.1-5.2,1.4c-0.4,4.1-0.1,8.3,0.4,12.6c0,0.3,0.4,0.8,1.1,0.6
		c0.6-0.5-0.1-1.8,1.6-1.9c0.3,1.3,0,2.6,1.1,3.7c0.8,0.7,0.5,1.7-0.3,2.4c-1.5,1.2-1.4,2.7-1.4,4.2c0,1.2,0,2.3,0,3.3
		c3,2.7,3,2.7,5,3.1c0.3-0.9,0.6-1.8,0.8-2.7c2.3,1.2,0.1,3.7,2.6,4.8c0.1-0.4,0.4-0.7,0.4-1c0.1-3.2,0.1-6.3,0.1-9.5
		c0-1.1,0-2.1,1.2-3.1c0.3,1.1,0.6,2.1,0.8,3.2c0.5,3.5,1.1,6.9,1.2,10.4c0,2.2,1.4,3.3,4.6,4c-0.2-2.4-0.5-4.8-0.1-7.2
		c0.3-2.4-0.1-4.8,0.4-7.8c0.5,1.1,0.9,1.6,1,2.2c0.4,3.7,0.7,7.4,1.1,11c0.3,2.8-0.1,5.7,1.9,8.3c0.5,0.6,0.7,1.4,0.7,2.1
		c0.2,1.8,0.3,3.6,0.3,5.4c0,1.8-0.1,3.6,0.8,5.3c0.8,0.1,1.5,0.2,2.1,0.3c5.8,0.3,11.7,0.6,17.5,0.8c7.2,0.3,14.4,0.5,21.6,0.9
		c6,0.3,12,0.7,17.9,0.9c8.1,0.3,16.2,0.5,24.4,0.9c14.9,0.7,29.8,1.5,44.7,2.2c0.9,0,1.7,0,2.5-0.5c2.6-1.5,4.6-1.3,7,0.6
		c0.8,0.6,1.6,1.1,2.4,1.7c10.9,7,21.9,14,32.8,21c0.5,0.3,1.1,0.7,1.7,0.8c4.4,1.4,8.9,2.8,13.4,4.2c1.4-0.9,3.2-1.3,3.7-2.9
		c-0.6-0.5-1.1-1-1.6-1.5c0.8-0.9,1.5-1.8,0.8-2.9c-0.4-0.6-0.3-1.1-0.2-1.8c0.5-2.3,0.8-4.6-1.8-6.6c0.7-0.4,1.2-0.9,1.8-0.9
		c1.2-0.1,2.4-0.1,3.2,0.9c-1.3,2.5-1.3,2.5-0.5,5.2c0.2,0.8,0.6,1.6,0.8,2.4c0.1,0.6-0.1,1.3,0.1,1.9c0.2,0.6,0.7,1.1,1,1.5
		c-1.5,1.9-1.5,2.2,0.3,3.2c0.6,0.3,1.2,0.5,1.7,0.8c3.4,1.4,7.1,1.8,10.9,1.5c4.8-0.4,8.5,1.4,11.9,3.7c1.5,1,2.5,2.2,2.9,3.8
		c0.2,0.7,0.4,1.4,0.7,2.1c2.3,0.5,4.1,1.4,6.2,1.2c3-2.3,5.9-4.4,8.8-6.6c0.8-0.6,1.5-1.4,2.4-2.1c1.7-1.3,3.7-2.4,5.3-3.8
		c2.3-2,5.1-3.6,7.3-5.6c1.6-1.4,3.6-2.4,5.4-3.7c1.5-1.1,2.7-2.2,4.1-3.3c2.3-1.8,4.7-3.6,7.1-5.4c1.8-1.4,3.6-2.7,5.4-4.1
		c2.6-2,5.3-4,8.1-5.9c1.6-1.1,3.1-2.3,4.6-3.5c1.8-1.4,3.2-3.1,5.4-4c0.6-0.2,0.9-0.8,1.4-1.1
		C1198.8,284.1,1199.8,283.5,1200.8,282.8z"/>
	<path class="st0" d="M867.6,186.7c-0.5-0.4-1.2-0.8-1.6-1.3c-0.3-0.5-0.3-1.1-0.4-1.7c-1.6,0.4-1,1.2-1,1.9c0,0.1-0.3,0.4-0.5,0.4
		c-0.2,0-0.6-0.2-0.6-0.3c-0.3-2.4-0.6-4.9-0.8-7.3c0-0.5,0.6-1.1,0.9-1.7c0.4-0.7,0.3-1.2-0.4-1.7c-0.9-0.6-1.7-0.6-2.5,0
		c-0.7,0.5-1.1,1.2-0.5,1.7c1.8,1.3,1.4,2.9,1.4,4.4c0,1,0,1.9,0,2.9c-2.4,0.7-2.7,2.5-3.8,3.9c-0.4,0.5-0.1,1.2,0.6,1.7
		c1,0.7,2,1.3,3,2c-0.3,2.4,0.6,4.8-0.8,7c0.1,2.3-0.6,4.6-1.6,6.7c-0.9,2.2-2.3,4.2-3.5,6.3c1.2,1.4,2,3,3.3,4.3
		c1.8,1.8,1.5,4.3,1.3,6.5c0,0.6-0.8,1.5-1.5,1.8c-3.9,1.6-5.1,4.5-6,7.5c-0.6,2.2-1.8,3.1-4.5,3c-0.2,0-0.4,0.2-0.6,0.4
		c-0.1,0.1-0.1,0.2-0.1,0.5c0.8,0,1.5,0,2.2,0.1c1.1,0.2,2.1,0.4,1.7,1.6c-0.2,0.5,0.4,0.7,0.7,1c1.1,1.1,1,1.8-0.4,2.6
		c-0.2,0.1-0.5,0.1-0.7,0.2c-0.8,0.4-0.9,1.1-0.3,1.6c0.4,0.4,1,0.7,1.4,1.1c0.9,0.9,1,1.9-0.2,2.4c-1.3,0.6-1.3,1.5-1.3,2.4
		c-0.2,3.1-1.2,6-2.5,8.9c-0.1,0.2-0.4,0.4-0.8,0.7c-1.5-1.6,0.1-3.8-2.2-5.2c-0.7,2.7,0.1,5.5-0.8,8.1c-0.6,0.2-1.2,0.4-1.9,0.7
		c-0.2,1.8-0.4,3.6-0.6,5.4c-1.5,0.9-3,1.8-4.9,1.7c-1.2-3.4-0.5-6.7-1.7-9.8c0-0.1-0.2-0.1-0.6-0.2c-0.1,3.8-0.2,7.6-0.3,11.4
		c-0.7,0.3-1.2,0.7-1.8,0.9c-9.3,3.7-18.6,7.5-27.8,11.2c-1.2,0.5-2.4,0.9-3.6,1.3c-1.2,0.4-2.4,0.6-3.8,0.1
		c-1.2-0.4-2.6-0.3-3.9-0.5c-0.8-1.4-0.9-1.4-0.3-2.9c1.9,0.1,1.5,1.9,3,2.5c0.3-0.2,0.8-0.4,0.9-0.7c0.3-1.1,0.7-2.3,0.7-3.4
		c0-4.1-0.2-8.3-0.2-12.4c0-1,0-1.9,0.1-2.9c0.3-1.8,1.1-3.2,3.6-3.8c2-0.5,3.9-1.3,6.3-2c-0.8-0.4-1.2-0.8-1.8-1
		c-6.1-1.8-12.2-3.6-18.4-5.4c-0.7-0.2-1.5-0.4-2.2-0.7c-0.9-0.3-1.1-1-0.5-1.9c0.1-0.2,0.4-0.3,0.6-0.4c0.1-0.2,0.2-0.4,0.3-0.5
		c-0.8-1.1-2.1-2-2.4-3.2c-0.3-1,0.4-2.3,0.4-3.4c0-3.5-0.1-7-0.2-10.5c0-1.3,0-2.6-0.1-3.8c-0.1-1.6-0.2-3.2-0.4-4.8
		c-0.2-1.5-0.6-2.9-0.2-4.4c0.2-0.9,0.2-1.9,0-2.9c-0.6-2.8,0.7-5.5-0.1-8.3c1.8-0.8,3.3-1.4,5-2.1c-1.2-1.1-2.2-2-3.2-3
		c-4.6-4.6-8.9-9.3-13.7-13.8c-7.1-6.6-11.5-14.3-16.3-21.9c-2.3-3.6-4.5-7.3-6.8-10.9c-4.5-7-8.1-14.4-11.2-21.9
		c-0.3-0.8-0.6-1.6-0.1-2.5c0.2-0.3,0.2-1,0-1.2c-1.4-1.3-1.1-2.8-1.2-4.3c-0.1-0.9,0.1-1.9,0.1-2.9c2-0.7,3.9,0.3,5.6-0.2
		c-0.5-1.6-0.5-1.6,0.4-3.1c-2-0.7-4.1-0.5-6.3-0.5c-0.7,2.5-1.2,5-1.1,7.5c0,1.2,0.6,2.5-0.9,3.6c-0.2,0.1-0.3,0.7-0.1,0.9
		c1.1,1.1,0.3,2.2-0.1,3.3c-0.3,0.9-0.6,1.8-0.9,2.8c-2.1,6.6-5,13-8.5,19.2c-3.2,5.7-6.5,11.5-9.5,17.2c-3.2,6.2-7.7,11.7-12.7,17
		c-4.5,4.9-9.1,9.7-13.8,14.7c1.2,1.5,3.5,2.3,5.1,4c0.1,0.9,0.2,1.9,0.2,3c0,1.1,0,2.1,1.2,2.9c0.7,0.5,0.6,1.4,0,2.1
		c-1.1,1.1-1.8,2,0.3,3.1c0.8,0.4,0.9,1.9,0,2.6c-1.2,0.9-1.1,1.9-1,2.9c0.1,1.9,0.3,3.8,0.5,5.7c0,0.6,0.3,1,1,1.3
		c1.1,0.5,1,1.3,0.5,1.9c-1.4,1.5-1,3.2-1.3,4.9c-0.2,1.2,0.1,2.5,0.2,3.7c1.3,0.4,2.6,0.3,2.5,1.7c0,0.2,0.8,0.6,1.1,0.6
		c0.4,0,0.9-0.4,1.1-0.8c0.2-0.4,0.1-0.8,0.1-1.3c0-1.2,0-2.3,0-3.9c1.2,1.7,0.6,3.4,1.7,4.8c0.6-0.1,1.2-0.2,1.8-0.3
		c0,0-0.1,0-0.1,0c-0.6,1.1-2,1.3-3.2,1.8c-2.1,0.9-4.2,1.8-6.2,2.6c-0.6,1,0.7,1.1,1,1.6c0.7,1.5,2.4,2.7,2.4,4.5
		c0,0.8,0.6,1.5,1.1,2.5c-1.6,1.1-3.8,1.6-5.7,2.6c-1.9,1-3.9,1.8-5.8,2.8c-1.9,0.9-3.9,1.9-5.8,2.8c-1.9,0.9-3.9,1.7-6.3,3
		c3,0.4,5.2,0.6,7.3,0.9c1,1,0.6,2.6,2.3,3.3c0.3,1.2,0.5,2.5,0.8,3.9c-0.9,0.1-1.5,0.4-2.1,0.3c-6-0.4-11.9-0.9-17.9-1.4
		c-0.2,0-0.5-0.2-0.9-0.4c0.2-0.7,0.6-1.5,0.7-2.3c0.2-0.9,0.6-1.7-0.2-2.7c-1-1.2-0.7-2.6,1.1-3.6c0.5-0.3,1-0.8,1.1-1.3
		c0.7-2.2,2.7-3.6,5.1-4.5c0.4-0.1,0.7-0.3,1.2-0.6c-0.1-2.1,2.3-3,4.3-4.4c-4.3-0.7-8.3-0.8-12.2-1.6c-0.1-1.7-0.2-3.3-0.3-4.9
		c-0.1-0.9,0-1.7-0.1-2.6c-0.2-1.7,0.1-3.5-2.3-4.2c0.4-1.2,0.8-2,1-2.8c0.3-1.8,0-3.5-1.8-4.7c-2.3-1.5-3.3-3.3-3-5.7
		c-1.3-0.8-2.5-1.6-4-2.6c-0.3-1.1-0.3-2.2,0.7-3.4c1.3-1.4,1.5-3.2,1.5-4.9c0-1.5,1.2-2,2.7-2.2c0.1,0.3,0,0.6,0.2,0.8
		c0.2,0.1,0.6,0.1,0.9,0.1c-0.2-0.2-0.3-0.5-0.5-0.7c-0.2-0.1-0.5-0.1-0.7-0.2c-0.5-0.4-1.3-0.7-1.3-1.1c-0.2-1.6-1.7-2.3-3-3.2
		c-2.2-1.5-2.6-3.3-1.4-5.4c0.2-0.4,0.4-0.8,0.7-1.2c-1.1-0.8-2.2-1.5-3.3-2.3c-0.8,0.8-1.6,1.5-2.3,2.2c0.2,1.1,0.5,2.1,0.7,3.2
		c-0.5,0.3-0.9,0.6-1.4,0.8c-1.5,0.8-2,1.9-1.8,3.3c0.6,3.4,1,6.8,0.6,10.2c-0.1,0.8,0.1,1.7,0.3,2.5c0.4,1.4,0.2,2.7-1.1,3.9
		c-1.1-0.3-1.2-1.1-1.2-1.8c-0.3-2.2-0.7-4.4-0.8-6.7c-0.3-8.7-0.6-17.5-0.9-26.2c0-1,0-1.9,0-2.7c0.3-0.4,0.4-0.7,0.6-0.7
		c1.2-0.5,2.4-0.9,2.7-2.2c0.3-1.2,0.2-2.3-0.7-3.4c-0.3-0.3-0.6-0.7-1-1.1c0.4-0.6,0.8-1.3,1.1-2c0.3-0.7,0.6-1.4,0.9-2
		c-0.5-0.6-1.1-1.1-1.3-1.7c-0.2-0.5-0.3-1.2,0.1-1.5c1.5-1.3,2.6-3,5.2-3.1c1.1,0,2.1-0.2,3.1-0.2c1.3-1.5,1.3-1.5,3.8-2.8
		c-1.4-0.2-2.7-0.4-3.9-0.7c-1.1-0.3-2.3-0.6-3.3-1.1c-0.5-0.2-1.1-0.7-1.2-1.2c-0.1-0.4,0.4-1,0.5-1.4c0.1-0.2,0-0.4,0.1-0.6
		c-1.5,0.1-2.9,0.2-4.6,0.3c-0.1-0.9-0.4-1.7-0.3-2.5c0.2-1.9-0.6-3.3-2.1-4.6c-0.5-0.5-1.1-1-1.6-1.5c-0.9-2.1,0.1-3.8,2.1-5.2
		c-1.1-3-1.1-3,1.5-5.1c-0.8-1.7-0.8-1.7-3.9-3.5c0-2.7-0.1-5.5,0.7-8.2c-1.3-0.8-2.4-0.9-3.8-0.3c-0.1,2.8,0.6,5.7,0.6,8.5
		c-2.9,1.9-2.9,1.9-3.8,3.6c2.6,2.3,2.6,2.3,1.6,4.9c0.8,0.9,1.7,1.8,2.3,2.8c0.3,0.5-0.1,1.2-0.2,2.2c-0.7-0.4-1.1-0.5-1.4-0.8
		c-0.6-0.5-1.1-1.3-1.8-1.6c-1.9-0.9-3.4-2-4.9-3.2c-0.2-0.2-0.3-0.3-0.6-0.5c-1.2-0.6-2.6-1.1-3.6-1.9c-0.9-0.7-0.2-2-1.4-2.9
		c-1.1-0.8-0.9-1.4,0.2-2.5c0.8-0.7,1.6-1.4,1.4-2.7c-0.4-0.3-1-0.7-1.6-1.1c-1-0.6-1.5-1.5-1.5-2.5c0-0.6-0.1-1.3-0.1-1.9
		c0-8.7-0.1-17.5-0.1-26.2c0-1-1-2-0.2-3.1c0.6-0.8,1.2-1.7,1.6-2.5c0.5-0.9,0.8-1.8,1.3-2.8c-1.4-1-2.8-2-4-3.1
		c-0.7-0.6-1.3-1.3-1.6-2.1c-0.6-1.3-1.1-2.1-3.3-2c-1.4,0.1-2.9-0.9-4.3-1.4c-0.9-0.4-1-1.3-0.3-2c0.4-0.4,0.9-0.8,1.4-1.2
		c1-0.7,2-1.4,2.7-2c0.2-1.9-0.7-3-2.1-3.9c-1-0.7-2-1.4-2.9-2.1c-0.4-0.3-0.9-0.7-0.9-1c0.2-2-1.7-3.1-3.4-4
		c-1.3-0.8-2.2-1.8-3-2.9c-1.9-2.3-2.8-4.7-2.4-7.5c0.3-2.2,0.1-4.5,0.1-6.8c-1.3-0.5-2.5,0.3-3.7-0.2c-0.2-0.9-0.4-1.9-0.6-2.9
		c4.7-2.2,4.6-5.9-0.1-8.5c-0.4-2.8-0.4-5.6-0.1-8.5c0.2-1.9,0.3-2,1.8-4.1c-0.4-0.6-0.9-1.1-1.3-1.7c-0.3-0.5-0.2-1.3-1.4-1.6
		c-0.3,2.6-0.2,5.3-2.9,7.7c1.1,0.4,2.1,0.8,2.6,1c0,2.9,0,5.1,0,7.4c-0.9,0.5-1.9,0.9-2.5,1.5c-0.6,0.6-0.9,1.5-1.4,2.3
		c0.6,1.9,0.8,3.9,3.9,4.2c-0.7,2.6-0.4,5-1.9,7.2c-0.5,0.7-0.2,1.5,0.4,2.1c1.2,1.6,0.6,2.9-1.1,3.9c-2.1,1.3-3.3,3-4.3,4.9
		c-1,2-2.5,3.7-4.6,5.2c-0.6,0.4-1.1,0.9-1.8,1.3c0.3,0.6,0.6,1.2,0.9,1.9c-1.5,2.5-4.9,3.8-6.3,6.3c-2.2,0.1-2.2,0.1-3.6,1.6
		c0.2,0.3,0.3,0.8,0.6,1.1c1.3,1.3,1.4,2.5,0.7,4.1c-0.6,1.4-1.5,2.4-2.8,3.3c-1.2,0.8-2.5,1.6-2.3,3.1c0.1,0.5-0.8,1-1.3,1.6
		c1.1,2.2,1.1,2.2,3.3,3.8c0,0.4,0.2,0.8,0.1,1.2c-0.5,3.1,0.3,6.1,0.2,9.2c-0.1,3.1,0,6.2,0.1,9.3c0.1,3.1,0.2,6.2,0.4,9.3
		c0.1,2.9,0.2,5.9-3.3,7.4c-0.5,2.1,1.6,2.6,2.5,3.8c-0.5,1.4-1.9,2.5-1.8,4.1c0,0.3-0.5,0.8-0.8,1.1c-1.9,1.5-3.7,3.1-6.2,4.3
		c-1.2-0.6-2.5-1.1-3.6-1.7c-1.3-1.5,0.1-2.9-0.1-4.3c-0.2-1.4,0.3-2.9,0.6-4.5c-1-0.2-2-0.5-3.1-0.7c-0.2,0.7-0.5,1.4-0.4,2.1
		c0.2,1.3,0.5,2.4,0,3.8c-0.4,1,0.3,2.2,0.5,3.3c-1,0.5-1.7,0.9-2.5,1.4c-2.1,1.3-2.1,1.4-0.1,3.1c0.8,0.7,1.2,1.6,0.7,2.3
		c-0.9,1.2-0.2,2.5-0.8,3.7c-0.6,1.1-1.1,2.2-1.4,3.3c-0.5,1.5-0.8,3.1-1.2,4.7c-0.7,2.9-2.7,4.8-6.5,5.2c-1.3,0.1-2.6,0.4-4.3,0.7
		c1.6,0.7,3.3,1,3.6,2.4c0.1,0.2,0.9,0.4,1.4,0.5c1.5,0.3,3,0.4,3.6,2c0.2,0.6,1.7,0.6,2.5,1.4c1.8,1.7,1.9,1.6,0.1,3.8
		c0.7,0.9,1.4,1.9,2.2,2.8c-0.2,0.3-0.4,0.5-0.6,0.8c-1.8,2.5-1.8,3.3,0.8,5.3c0.9,0.7,1.4,1.5,1.4,2.5c0.1,5.5,0.5,11.1,0.2,16.6
		c-1.4,0.9-2.9,1.1-4.7,1.3c-0.6-0.7-1.2-1.4-1.8-2c-0.8-0.8-2.1-0.7-2.6,0.2c-0.3,0.7-0.5,1.4-0.4,2.2c0.1,1.2,0.5,2.3,0.7,3.4
		c-2.1,2.3-4,4.7-8.2,4c-0.3,0.5-0.5,0.9-0.8,1.4c0.5,0.5,1.1,1,1.5,1.6c0.4,0.7,0.6,1.4,0.9,2.1c0.8,1.9,1.5,3.9,2.2,5.8
		c0.9,2.6,0.7,5-1.5,7.2c-3,3.1-2.8,5.1,0.5,8.2c0.2,0.1,0.2,0.4,0.4,0.8c-1.2,0.3-2.3,0.6-3.6,1c0,2.9,0,5.6,0,8.5
		c-3.4,2.4-7.8,4-11.1,6.5c2.7,1.5,2.7,1.5,3.9,3.3c1.6,0.3,3.2,0.5,5,0.8c0.4,1.5,0.9,2.8,2.6,3.8c1.2,0.7,1.4,2,0.7,3.2
		c-0.3,0.5-0.6,0.9-0.9,1.3c1.8,3.9,1.9,8,2,12c0.2,7.7,0.4,15.3,0.6,23c0.2,8.1,0.3,16.2,0.5,24.3c0,1.7,0.2,3.4,0.3,5.1
		c0,0.8-0.2,1.7-0.3,2.7c-0.9-0.1-1.7,0-2.4-0.2c-11.8-3-23.6-6-35.4-9c-8.2-2.1-16.5-4.3-24.7-6.5c-3.6-1-7.3-1-11-1.4
		c-3.7-0.3-7.4-0.6-11-0.9c-0.9-1.2,1.2-1.6,1-2.6c-0.9-1.5-2.6-0.5-4.1-0.8c-0.9-2.2-0.5-4.4-0.2-6.8c-0.5-0.1-1.1-0.3-1.7-0.5
		c-0.5-0.1-1-0.2-1.5-0.2c-0.3-0.5-0.5-1-0.9-1.8c-0.5,0.7-0.8,1.2-1.1,1.7c-0.8,0.1-1.7,0.1-2.7,0.2c-0.3-0.2-0.7-0.4-0.9-0.6
		c-0.6-0.6-1-1.3-1.6-1.8c-3.4-3.4-7.7-4.2-12.8-2.4c-0.2,0.1-0.5,0.1-0.9,0.3c-1.7-0.8-2.9-2-4.1-3.3c-0.5-0.5-0.7-1.4-0.7-2.1
		c-0.1-1.7-0.1-3.4-0.2-5.3c-6.6-0.8-13.2-1.2-20-1.4c-0.2,0.7-0.4,1.3-0.4,1.9c0,1.2,0,2.3,0.1,3.5c0,1-0.3,1.9-1,2.7
		c-2,2.1-3.9,4.3-5.8,6.5c-0.8,1-1.9,1.4-3.3,1.5c-0.1,0.5-0.2,1-0.4,1.7c-7.7-0.5-15.3-1-23-1.5c-0.8-1.6-0.5-3.2-0.1-4.9
		c-0.8-0.1-1.5-0.3-2.3-0.4c-4.4-0.3-8.8-0.6-13.2-0.8c-2.1-0.1-2.2-0.1-4.3,1.1c0,1.2,1.2,2.4-0.1,3.8c-5.2-0.2-10.5-0.4-15.8-0.7
		c-4.8-0.2-9.5-0.6-14.3-0.9c-6.5-0.4-13-1-19.4-1.4c-4.8-0.3-9.5-0.5-14.3-0.7c-2.5-0.1-5-0.4-7.6-0.5c-3.8-0.2-7.7-0.5-11.5-0.7
		c-0.6,0-1.3-0.1-1.9-0.2c-0.5-2-0.5-3.8,0.4-5.9c-2.7-0.4-5.2-0.6-7.7-0.4c-2.1,0.1-3.4,1.5-5.2,2.3c0.7,2,0.7,3.9,0.3,5.9
		c-3.4-0.2-5.4,1.7-7.6,3.1c-0.9,0.6-1.2,1.4-0.8,2.3c2.3,0.5,4.7,1.1,7,1.6c0.2,1.8-0.6,2.8-2.4,3.4c-4.6,1.6-9.2,3.4-13.8,5
		c-11.9,4.1-23.7,8.2-35.6,12.3c-8,2.7-16,5.3-24,7.9c-6.6,2.2-13.3,4.5-19.8,6.7c-1.5,0.5-3,0.8-4.6,0.7c-2.7-0.2-5.5-0.3-8.4-0.4
		c0-0.9,0-1.6,0-2.3c-0.2-0.1-0.4-0.3-0.6-0.3c-3.4-0.2-6.9-0.5-10.3-0.7c-1.1,0-2.3,0.3-3.6,0.4c0.2,0.6,0.4,1,0.6,1.6
		c-1.2,0.5-2.6,0.3-3.8,0.2c-6.7-0.4-13.4-1-20.1-1.4c-1.5-0.1-2.8-0.4-4.1-1.1c-0.4-3.4-1.2-6.7-0.6-10.1c0.2-0.9,0.5-1.8,0.9-3.1
		c-0.7-1.1-1.6-2.5-2.5-3.9c-4.9,0.1-6.3,3-7.9,5.8c0.9,3.2,0.2,6.4,0,9.5c-0.1,0.9-0.2,1.8,0,2.8c0.3,2,0.3,4-0.2,6
		c-1.7,0.6-3.2,0.4-4.9,0.2c-0.1-0.6-0.2-1.1-0.4-1.8c-2.8-0.4-5.6-0.8-8.4,0.4c-0.8,0.3-1.8,0.4-2.7,0.3c-3.8-0.4-7.6-0.9-11.5-1.3
		c-0.5-0.1-1-0.2-1.5-0.4c-0.8-1.7-0.4-3.4-0.2-5.3c-2.2-0.6-4.6-0.7-6.9-1c-2.4-0.3-4.7-0.7-7.3,0.3c0,1.2,0,2.5,0,4
		c-0.7,0-1.2,0.1-1.7,0.1c-6.2-0.8-12.3-1.7-18.5-2.5c-0.8-0.1-1.5-0.3-2.5-0.6c-0.1-0.7-0.2-1.4-0.2-2.2c0-0.6,0.2-1.3,0.3-2.1
		c-0.6-0.2-1.3-0.5-2-0.7c-3.1-0.5-6.3-0.7-9.4-1.5c-1.5-0.4-3.4,0-5.1,0.1c-1.1,0.1-2,0-3-0.4c-1.2-0.6-2.8-0.6-4.2-0.9
		c0-115.2,0-230.3,0-345.5c400,0,800,0,1200,0c0,94.1,0,188.1,0,282.1c-1,0.7-2,1.3-3,2c-0.5,0.3-0.9,0.8-1.4,1.1
		c-2.2,1-3.6,2.7-5.4,4c-1.5,1.2-3,2.4-4.6,3.5c-2.8,1.9-5.5,3.9-8.1,5.9c-1.8,1.4-3.6,2.7-5.4,4.1c-2.4,1.8-4.7,3.6-7.1,5.4
		c-1.4,1.1-2.7,2.3-4.1,3.3c-1.7,1.3-3.8,2.3-5.4,3.7c-2.3,2-5,3.6-7.3,5.6c-1.6,1.4-3.6,2.5-5.3,3.8c-0.9,0.6-1.5,1.4-2.4,2.1
		c-2.9,2.2-5.7,4.3-8.8,6.6c-2.1,0.2-3.9-0.7-6.2-1.2c-0.2-0.7-0.5-1.4-0.7-2.1c-0.4-1.5-1.4-2.8-2.9-3.8c-3.5-2.3-7.1-4-11.9-3.7
		c-3.7,0.3-7.4-0.1-10.9-1.5c-0.6-0.2-1.2-0.5-1.7-0.8c-1.8-0.9-1.8-1.3-0.3-3.2c-0.3-0.5-0.8-1-1-1.5c-0.2-0.6,0-1.3-0.1-1.9
		c-0.2-0.8-0.5-1.6-0.8-2.4c-0.8-2.7-0.8-2.7,0.5-5.2c-0.7-1-2-1-3.2-0.9c-0.5,0.1-1,0.5-1.8,0.9c2.6,1.9,2.3,4.3,1.8,6.6
		c-0.1,0.7-0.2,1.2,0.2,1.8c0.7,1.1,0.1,2-0.8,2.9c0.6,0.5,1.1,1,1.6,1.5c-0.5,1.6-2.3,2-3.7,2.9c-4.5-1.4-9-2.8-13.4-4.2
		c-0.6-0.2-1.2-0.5-1.7-0.8c-10.9-7-21.9-14-32.8-21c-0.8-0.5-1.7-1.1-2.4-1.7c-2.3-1.8-4.3-2.1-7-0.6c-0.9,0.5-1.6,0.6-2.5,0.5
		c-14.9-0.7-29.8-1.5-44.7-2.2c-8.1-0.4-16.2-0.6-24.4-0.9c-6-0.3-12-0.7-17.9-0.9c-7.2-0.3-14.4-0.6-21.6-0.9
		c-5.9-0.2-11.7-0.5-17.5-0.8c-0.7,0-1.3-0.2-2.1-0.3c-0.9-1.7-0.7-3.5-0.8-5.3c0-1.8-0.2-3.6-0.3-5.4c-0.1-0.7-0.3-1.5-0.7-2.1
		c-2-2.6-1.6-5.5-1.9-8.3c-0.3-3.7-0.7-7.4-1.1-11c-0.1-0.6-0.5-1.1-1-2.2c-0.5,3,0,5.4-0.4,7.8c-0.3,2.4-0.1,4.8,0.1,7.2
		c-3.3-0.7-4.6-1.8-4.6-4c-0.1-3.5-0.7-6.9-1.2-10.4c-0.1-1-0.5-2-0.8-3.2c-1.2,0.9-1.2,2-1.2,3.1c0,3.2,0,6.3-0.1,9.5
		c0,0.3-0.2,0.6-0.4,1c-2.5-1.1-0.3-3.7-2.6-4.8c-0.3,0.9-0.5,1.8-0.8,2.7c-2-0.4-2-0.4-5-3.1c0-1,0-2.1,0-3.3
		c-0.1-1.5-0.2-3,1.4-4.2c0.8-0.6,1-1.6,0.3-2.4c-1.2-1.1-0.9-2.4-1.1-3.7c-1.7,0.1-0.9,1.3-1.6,1.9c-0.7,0.2-1.1-0.3-1.1-0.6
		c-0.4-4.2-0.7-8.5-0.4-12.6c1.6-1.3,3.2-1.8,5.2-1.4c0.1-1.1-0.6-1.1-1.2-1c-0.8,0.1-1.5,0.1-2.3-0.3c-0.6-0.4-0.4-0.9-0.6-1.4
		c-0.1-0.3-1-0.4-1.9-0.7c-0.3-0.6-0.7-1.3-0.9-2.1c-0.6-1.8-1.8-3.3-3.9-4.3c-1-0.5-2-1.1-3-1.7c-0.4-1.9-0.6-3.8-0.1-5.7
		c0.1-0.5,0.2-1.2,0.6-1.5c1.7-1.4,1.8-3.3,2.8-4.9c-5-5.8-7.8-12.1-7.4-19.3c0.9-0.5,1.7-0.9,2.7-1.5
		C867.6,188.6,867.6,187.6,867.6,186.7c0-0.4,0-0.7,0-1.1c0,0-0.1,0-0.1,0C867.5,186,867.5,186.3,867.6,186.7z M1037.4,284
		c-1.3-0.8-0.4-2-1.3-3.3c0,2.6,0,4.7,0,7.7C1036.6,286.4,1037,285.2,1037.4,284c0.2-0.1,0.4-0.2,0.6-0.3
		C1037.8,283.8,1037.6,283.9,1037.4,284z M863.8,162.4c0.3-0.8,0.6-1.4,0.9-2.2c-0.9,0.2-1.7,0.6-2.4,0.6c-0.9-0.1-1.5,0.1-2.2,0.4
		c-0.6,0.3-1,0.6-0.5,1.4C860.9,162.5,862.3,162.4,863.8,162.4z M535.9,217.8c-0.1-1-1.1-1.7-1.9-1.6c-0.7,0-1.3,0.8-1.2,1.4
		c0.1,0.6,0.9,1.3,1.6,1.1C535,218.5,535.5,218,535.9,217.8z M650,196.9c-1,1.3-0.5,2.4,0,3.5C650.5,199.3,651.1,198.2,650,196.9z
		 M916.1,283.9c0-0.1,0-0.2,0-0.3c-0.4-0.2-0.7-0.5-1.2-0.6c-0.1,0-0.6,0.4-0.6,0.6c0,0.5,0.6,0.6,1.1,0.5
		C915.7,284.1,915.9,284,916.1,283.9z M574.5,84.7c-0.2-0.1-0.4-0.1-0.6-0.2c-0.1,0.2-0.3,0.4-0.2,0.5c0,0.1,0.4,0.2,0.5,0.2
		C574.4,85.1,574.4,84.8,574.5,84.7z M617.5,90.2c-0.1-0.1-0.1-0.2-0.2-0.2c-0.1,0.1-0.2,0.2-0.2,0.2c0.1,0.1,0.2,0.2,0.3,0.3
		C617.4,90.4,617.4,90.3,617.5,90.2z M403.6,299.4c-0.1,0.1-0.2,0.1-0.2,0.2c0,0.1,0.1,0.2,0.1,0.2c0.1-0.1,0.2-0.1,0.2-0.2
		C403.8,299.6,403.7,299.5,403.6,299.4z"/>
	<path class="st0" d="M707.3,241.9c0.3-0.3,0.6-0.7,1-0.9c0.9-0.5,1.8-0.8,2.2-1.7c0.3-0.8,1.2-1.1,2.2-1c1.3,0.1,2.6,0,4.1,0
		c0.8,0.4,1.4,1.8,3,0.7c0-1.7,0-3.4,0-5.1c0-1.3,0.7-2.1,1.4-1.9c1.1,0.3,1.3,1.1,1.2,1.8c-0.1,1.7,0.1,3.4,1.2,5.1
		c1.3,0.4,2.7-0.2,4.2-0.2c1.3-0.1,2.7,0.2,4-0.6c-0.1-0.5-0.3-1.1-0.4-1.7c-0.2-1.8-0.3-3.6-0.3-5.4c0-1.6,0.2-1.7,2.9-1.7
		c0.9,2.8,0,5.7,1,8.4c3.6,0.3,3.6,0.3,4.8-1.6c0.9,0,1.8,0.1,2.7,0c0.9-0.1,1.7-0.4,2.7-0.7c0.6,0.3,1.5,0.6,1.9,1.1
		c1,1.2,2.5,1.4,4.1,1.6c7.4,0.6,14.8,1.2,22.2,1.9c1,0.1,2.1,0,3.1,0.1c0.2,0,0.4,0.3,0.4,0.5c0,0.2-0.3,0.4-0.4,0.4
		c-0.6,0-1.3,0-2,0c-9.1-0.7-18.3-1.5-27.4-2.2c-1.7-0.1-3.5-0.1-5.2,0c-10.2,0.8-20.4,1.7-30.5,2.6
		C710,241.4,708.6,241.7,707.3,241.9L707.3,241.9z"/>
	<path class="st0" d="M707.2,241.9c-0.6,1-1.9,1-2.9,1.5l0.1,0.1C704.8,242.1,705,242,707.2,241.9
		C707.3,241.9,707.2,241.9,707.2,241.9z"/>
	<path class="st0" d="M704.3,243.3c-0.7,0.1-1.5,0.2-2.2,0.3c0,0,0.1,0,0.1,0C702.8,243.5,703.6,243.4,704.3,243.3
		C704.4,243.4,704.3,243.3,704.3,243.3z"/>
	<path d="M863.8,162.4c-1.5,0.1-2.9,0.2-4.2,0.2c-0.6-0.8-0.1-1.1,0.5-1.4c0.7-0.3,1.3-0.5,2.2-0.4c0.7,0,1.4-0.3,2.4-0.6
		C864.4,160.9,864.1,161.6,863.8,162.4z"/>
	<path d="M1037.3,284c-0.3,1.2-0.6,2.4-1.1,4.4c0-2.9,0-5.1,0-7.7c0.8,1.3,0,2.6,1.3,3.3L1037.3,284z"/>
	<path d="M535.9,217.8c-0.4,0.2-0.9,0.7-1.5,0.9c-0.7,0.2-1.5-0.5-1.6-1.1c-0.1-0.6,0.6-1.4,1.2-1.4
		C534.8,216.1,535.8,216.8,535.9,217.8z"/>
	<path d="M650,196.9c1.1,1.3,0.5,2.4,0,3.5C649.5,199.3,649.1,198.2,650,196.9z"/>
	<path d="M916.1,283.9c-0.2,0.1-0.4,0.2-0.7,0.2c-0.5,0.1-1.1,0-1.1-0.5c0-0.2,0.5-0.6,0.6-0.6c0.4,0.1,0.8,0.4,1.2,0.6
		C916.2,283.6,916.1,283.8,916.1,283.9z"/>
	<path d="M574.5,84.7c-0.1,0.2-0.1,0.4-0.3,0.5c-0.1,0.1-0.5-0.1-0.5-0.2c-0.1-0.1,0.1-0.3,0.2-0.5
		C574.1,84.5,574.3,84.6,574.5,84.7z"/>
	<path d="M658.5,215.6c0.2,0.1,0.6,0,0.7,0.2c0.2,0.2,0.3,0.4,0.5,0.7c-0.3,0-0.7,0-0.9-0.1C658.6,216.1,658.6,215.8,658.5,215.6
		C658.6,215.5,658.5,215.6,658.5,215.6z"/>
	<path d="M617.5,90.2c0,0.1-0.1,0.2-0.1,0.3c-0.1-0.1-0.2-0.2-0.3-0.3c0,0,0.1-0.1,0.2-0.2C617.3,90.1,617.4,90.2,617.5,90.2z"/>
	<path d="M867.6,186.7c0-0.4,0-0.7-0.1-1.1c0,0,0.1,0,0.1,0C867.6,186,867.6,186.3,867.6,186.7C867.6,186.7,867.6,186.7,867.6,186.7
		z"/>
	<path d="M1037.4,284c0.2-0.1,0.4-0.2,0.6-0.3C1037.8,283.8,1037.5,283.9,1037.4,284C1037.3,284,1037.4,284,1037.4,284z"/>
	<path d="M403.6,299.4c0.1,0.1,0.1,0.2,0.1,0.2c0,0.1-0.1,0.1-0.2,0.2c-0.1-0.1-0.2-0.2-0.1-0.2
		C403.5,299.5,403.6,299.5,403.6,299.4z"/>
</g>
</svg>
